<svg width="156" height="336" viewBox="0 0 156 336" fill="none" xmlns="http://www.w3.org/2000/svg">
<path d="M0.999023 316.846L0.999974 317.045L1.0033 317.243L1.00901 317.443L1.01662 317.644L1.02708 317.846L1.03945 318.048L1.05419 318.25L1.07131 318.454L1.09081 318.658L1.11269 318.863L1.13694 319.069L1.16405 319.274L1.19353 319.481L1.2254 319.688L1.26011 319.895L1.29673 320.103L1.33668 320.31L1.37901 320.518L1.42371 320.727L1.47127 320.935L1.5212 321.144L1.57399 321.353L1.62964 321.561L1.68813 321.77L1.74901 321.979L1.81273 322.187L1.87884 322.396L1.9478 322.604L2.02008 322.812L2.09475 323.019L2.17179 323.226L2.25216 323.433L2.33492 323.639L2.42052 323.845L2.50897 324.05L2.60029 324.255L2.69445 324.459L2.79099 324.662L2.89039 324.864L2.99264 325.065L3.09774 325.266L3.20569 325.465L3.31603 325.664L3.42921 325.861L3.54478 326.058L3.6632 326.253L3.78447 326.446L3.90812 326.639L4.03462 326.83L4.1635 327.019L4.29524 327.208L4.42935 327.395L4.56584 327.58L4.70471 327.763L4.84643 327.945L4.99053 328.126L5.137 328.304L5.28586 328.48L5.43662 328.655L5.59023 328.829L5.74574 328.999L5.90411 329.168L6.0639 329.335L6.22655 329.5L6.39062 329.663L6.55707 329.823L6.7259 329.982L6.89616 330.138L7.06879 330.292L7.24285 330.443L7.41929 330.592L7.59715 330.739L7.77692 330.884L7.95812 331.025L8.14121 331.165L8.32621 331.302L8.51264 331.436L8.70001 331.569L8.88929 331.698L9.08 331.825L9.27213 331.949L9.46521 332.07L9.65972 332.189L9.85566 332.305L10.0525 332.418L10.2504 332.529L10.4492 332.637L10.6489 332.742L10.8501 332.845L11.0517 332.944L11.2539 333.042L11.4574 333.136L11.6614 333.227L11.8659 333.316L12.0709 333.402L12.2768 333.485L12.4827 333.565L12.6896 333.643L12.8965 333.718L13.1038 333.79L13.3117 333.859L13.5195 333.926L13.7273 333.99L13.9356 334.051L14.1434 334.109L14.3517 334.165L14.5601 334.218L14.7679 334.268L14.9762 334.316L15.184 334.361L15.3914 334.403L15.5987 334.443L15.8056 334.48L16.0125 334.515L16.2184 334.547L16.4243 334.576L16.6298 334.603L16.8347 334.628L17.0387 334.65L17.2428 334.669L17.4454 334.686L17.648 334.701L17.8496 334.713L18.0508 334.723L18.2505 334.732L18.4503 334.737L18.6486 334.74L18.8464 334.742H136.638L136.835 334.74L137.034 334.737L137.233 334.732L137.433 334.723L137.634 334.713L137.836 334.701L138.038 334.686L138.241 334.669L138.445 334.65L138.65 334.628L138.854 334.603L139.059 334.576L139.265 334.547L139.472 334.515L139.678 334.48L139.885 334.443L140.092 334.403L140.3 334.361L140.508 334.316L140.716 334.268L140.924 334.218L141.132 334.165L141.34 334.109L141.549 334.051L141.756 333.99L141.965 333.926L142.173 333.859L142.38 333.79L142.587 333.718L142.794 333.643L143.001 333.565L143.207 333.485L143.413 333.402L143.618 333.316L143.823 333.227L144.026 333.136L144.23 333.042L144.433 332.944L144.634 332.845L144.835 332.742L145.035 332.637L145.234 332.529L145.432 332.418L145.629 332.305L145.824 332.189L146.019 332.07L146.212 331.949L146.404 331.825L146.594 331.698L146.784 331.569L146.972 331.436L147.158 331.302L147.343 331.165L147.526 331.025L147.707 330.884L147.887 330.739L148.065 330.592L148.241 330.443L148.415 330.292L148.588 330.138L148.758 329.982L148.927 329.823L149.093 329.663L149.258 329.5L149.42 329.335L149.58 329.168L149.738 328.999L149.894 328.829L150.047 328.655L150.198 328.48L150.347 328.304L150.493 328.126L150.637 327.945L150.779 327.763L150.918 327.58L151.055 327.395L151.189 327.208L151.32 327.019L151.449 326.83L151.576 326.639L151.699 326.446L151.821 326.253L151.939 326.058L152.055 325.861L152.168 325.664L152.279 325.465L152.386 325.266L152.491 325.065L152.593 324.864L152.693 324.662L152.789 324.459L152.883 324.255L152.975 324.05L153.063 323.845L153.149 323.639L153.232 323.433L153.312 323.226L153.389 323.019L153.464 322.812L153.536 322.604L153.605 322.396L153.672 322.187L153.735 321.979L153.796 321.77L153.854 321.561L153.91 321.353L153.963 321.144L154.013 320.935L154.06 320.727L154.105 320.518L154.147 320.31L154.187 320.103L154.224 319.895L154.258 319.688L154.29 319.481L154.32 319.274L154.347 319.069L154.371 318.863L154.393 318.658L154.412 318.454L154.43 318.25L154.445 318.048L154.457 317.846L154.467 317.644L154.475 317.443L154.48 317.243L154.484 317.045L154.485 316.846V19.1537L154.484 18.9554L154.48 18.7565L154.475 18.5562L154.467 18.356L154.457 18.1543L154.445 17.9521L154.43 17.7489L154.412 17.5458L154.393 17.3412L154.371 17.1366L154.347 16.9311L154.32 16.7251L154.29 16.5186L154.258 16.3122L154.224 16.1047L154.187 15.8973L154.147 15.6894L154.105 15.4815L154.06 15.2731L154.013 15.0642L153.963 14.8558L153.91 14.647L153.854 14.4381L153.796 14.2297L153.735 14.0209L153.672 13.8125L153.605 13.6041L153.536 13.3957L153.464 13.1878L153.389 12.9804L153.312 12.7729L153.232 12.5665L153.149 12.36L153.063 12.1545L152.975 11.9494L152.883 11.7448L152.789 11.5407L152.693 11.3381L152.593 11.1359L152.491 10.9342L152.386 10.7339L152.279 10.5346L152.168 10.3362L152.055 10.1388L151.939 9.94232L151.821 9.74729L151.699 9.55368L151.576 9.36103L151.449 9.16981L151.32 8.98002L151.189 8.79214L151.055 8.60522L150.918 8.41972L150.779 8.23613L150.637 8.05445L150.493 7.8742L150.347 7.69585L150.198 7.51894L150.047 7.34441L149.894 7.17131L149.738 7.0006L149.58 6.83131L149.42 6.66441L149.258 6.4999L149.093 6.33681L148.927 6.17659L148.758 6.0178L148.588 5.86186L148.415 5.70784L148.241 5.55668L148.065 5.40742L147.887 5.26055L147.707 5.11606L147.526 4.97396L147.343 4.83472L147.158 4.69786L146.972 4.56339L146.784 4.4313L146.594 4.30207L146.404 4.17523L146.212 4.05124L146.019 3.92965L145.824 3.81091L145.629 3.69503L145.432 3.58154L145.234 3.47091L145.035 3.36266L144.835 3.25728L144.634 3.15476L144.433 3.05509L144.23 2.95829L144.026 2.86387L143.823 2.77232L143.618 2.68362L143.413 2.59779L143.207 2.51481L143.001 2.43423L142.794 2.35698L142.587 2.28211L142.38 2.20963L142.173 2.14048L141.965 2.0742L141.756 2.0103L141.549 1.94927L141.34 1.89061L141.132 1.83482L140.924 1.78189L140.716 1.73182L140.508 1.68413L140.3 1.63931L140.092 1.59687L139.885 1.55681L139.678 1.52009L139.472 1.48528L139.265 1.45333L139.059 1.42377L138.854 1.39659L138.65 1.37227L138.445 1.35033L138.241 1.33078L138.038 1.31362L137.836 1.29883L137.634 1.28644L137.433 1.27594L137.233 1.26831L137.034 1.26259L136.835 1.25925L136.638 1.2583H18.8464L18.6486 1.25925L18.4503 1.26259L18.2505 1.26831L18.0508 1.27594L17.8496 1.28644L17.648 1.29883L17.4454 1.31362L17.2428 1.33078L17.0387 1.35033L16.8347 1.37227L16.6298 1.39659L16.4243 1.42377L16.2184 1.45333L16.0125 1.48528L15.8056 1.52009L15.5987 1.55681L15.3914 1.59687L15.184 1.63931L14.9762 1.68413L14.7679 1.73182L14.5601 1.78189L14.3517 1.83482L14.1434 1.89061L13.9356 1.94927L13.7273 2.0103L13.5195 2.0742L13.3117 2.14048L13.1038 2.20963L12.8965 2.28211L12.6896 2.35698L12.4827 2.43423L12.2768 2.51481L12.0709 2.59779L11.8659 2.68362L11.6614 2.77232L11.4574 2.86387L11.2539 2.95829L11.0517 3.05509L10.8501 3.15476L10.6489 3.25728L10.4492 3.36266L10.2504 3.47091L10.0525 3.58154L9.85566 3.69503L9.65972 3.81091L9.46521 3.92965L9.27213 4.05124L9.08 4.17523L8.88929 4.30207L8.70001 4.4313L8.51264 4.56339L8.32621 4.69786L8.14121 4.83472L7.95812 4.97396L7.77692 5.11606L7.59715 5.26055L7.41929 5.40742L7.24285 5.55668L7.06879 5.70784L6.89616 5.86186L6.7259 6.0178L6.55707 6.17659L6.39062 6.33681L6.22655 6.4999L6.0639 6.66441L5.90411 6.83131L5.74574 7.0006L5.59023 7.17131L5.43662 7.34441L5.28586 7.51894L5.137 7.69585L4.99053 7.8742L4.84643 8.05445L4.70471 8.23613L4.56584 8.41972L4.42935 8.60522L4.29524 8.79214L4.1635 8.98002L4.03462 9.16981L3.90812 9.36103L3.78447 9.55368L3.6632 9.74729L3.54478 9.94232L3.42921 10.1388L3.31603 10.3362L3.20569 10.5346L3.09774 10.7339L2.99264 10.9342L2.89039 11.1359L2.79099 11.3381L2.69445 11.5407L2.60029 11.7448L2.50897 11.9494L2.42052 12.1545L2.33492 12.36L2.25216 12.5665L2.17179 12.7729L2.09475 12.9804L2.02008 13.1878L1.9478 13.3957L1.87884 13.6041L1.81273 13.8125L1.74901 14.0209L1.68813 14.2297L1.62964 14.4381L1.57399 14.647L1.5212 14.8558L1.47127 15.0642L1.42371 15.2731L1.37901 15.4815L1.33668 15.6894L1.29673 15.8973L1.26011 16.1047L1.2254 16.3122L1.19353 16.5186L1.16405 16.7251L1.13694 16.9311L1.11269 17.1366L1.09081 17.3412L1.07131 17.5458L1.05419 17.7489L1.03945 17.9521L1.02708 18.1543L1.01662 18.356L1.00901 18.5562L1.0033 18.7565L0.999974 18.9554L0.999023 19.1537V316.846Z" stroke="black" stroke-width="1.5" stroke-miterlimit="10" stroke-linecap="round" stroke-linejoin="round"/>
</svg>
