<svg width="160" height="340" viewBox="0 0 160 340" fill="none" xmlns="http://www.w3.org/2000/svg">
<path d="M0.741943 318.981L0.743374 319.203L0.74671 319.425L0.752905 319.649L0.761957 319.874L0.772919 320.099L0.787214 320.325L0.803416 320.552L0.822954 320.78L0.844873 321.008L0.869177 321.238L0.896814 321.467L0.926835 321.698L0.959716 321.928L0.995455 322.16L1.03405 322.392L1.07551 322.624L1.11983 322.856L1.16748 323.089L1.21752 323.323L1.27089 323.555L1.32712 323.789L1.38621 324.022L1.44815 324.256L1.51344 324.489L1.58158 324.723L1.65306 324.956L1.7274 325.189L1.80459 325.422L1.88513 325.655L1.969 325.887L2.05525 326.118L2.14531 326.35L2.23823 326.58L2.33401 326.811L2.43313 327.04L2.53511 327.269L2.64042 327.497L2.74907 327.724L2.8601 327.95L2.97494 328.176L3.09216 328.4L3.21273 328.623L3.33662 328.845L3.46338 329.066L3.59299 329.285L3.72547 329.503L3.86128 329.72L3.99995 329.936L4.14147 330.15L4.28586 330.362L4.43311 330.573L4.58321 330.781L4.73618 330.988L4.892 331.194L5.05068 331.397L5.21175 331.599L5.37567 331.799L5.54246 331.996L5.71162 332.192L5.88365 332.385L6.05806 332.576L6.23485 332.765L6.41402 332.952L6.59605 333.137L6.77999 333.318L6.96631 333.498L7.15502 333.675L7.3461 333.85L7.5391 334.022L7.73447 334.192L7.93175 334.358L8.13094 334.523L8.33251 334.684L8.53551 334.843L8.74042 334.999L8.94723 335.153L9.15595 335.303L9.36609 335.45L9.57815 335.595L9.79163 335.737L10.0065 335.876L10.2234 336.011L10.4411 336.144L10.6603 336.274L10.8805 336.401L11.1021 336.525L11.3251 336.646L11.5491 336.763L11.774 336.878L11.9994 336.99L12.2262 337.098L12.454 337.203L12.6822 337.306L12.9114 337.405L13.1411 337.501L13.3718 337.594L13.6024 337.684L13.834 337.771L14.0656 337.855L14.2981 337.935L14.5302 338.013L14.7632 338.087L14.9962 338.159L15.2293 338.227L15.4623 338.293L15.6953 338.355L15.9283 338.414L16.1613 338.47L16.3944 338.524L16.6274 338.574L16.8595 338.621L17.092 338.665L17.3236 338.707L17.5552 338.746L17.7858 338.782L18.0165 338.815L18.2466 338.845L18.4758 338.872L18.7046 338.897L18.9328 338.919L19.1601 338.938L19.3869 338.955L19.6128 338.969L19.8377 338.98L20.0617 338.989L20.2852 338.995L20.5073 338.999L20.7288 339H138.756L138.977 338.999L139.199 338.995L139.422 338.989L139.646 338.98L139.872 338.969L140.097 338.955L140.324 338.938L140.551 338.919L140.779 338.897L141.008 338.872L141.238 338.845L141.467 338.815L141.698 338.782L141.929 338.746L142.16 338.707L142.392 338.665L142.624 338.621L142.857 338.574L143.09 338.524L143.323 338.47L143.556 338.414L143.789 338.355L144.022 338.293L144.255 338.227L144.488 338.159L144.721 338.087L144.954 338.013L145.186 337.935L145.418 337.855L145.65 337.771L145.881 337.684L146.113 337.594L146.343 337.501L146.572 337.405L146.802 337.306L147.03 337.203L147.258 337.098L147.485 336.99L147.71 336.878L147.935 336.763L148.159 336.646L148.382 336.525L148.603 336.401L148.824 336.274L149.043 336.144L149.261 336.011L149.477 335.876L149.692 335.737L149.906 335.595L150.118 335.45L150.328 335.303L150.537 335.153L150.743 334.999L150.948 334.843L151.152 334.684L151.353 334.523L151.552 334.358L151.749 334.192L151.945 334.022L152.138 333.85L152.329 333.675L152.518 333.498L152.704 333.318L152.888 333.137L153.07 332.952L153.249 332.765L153.426 332.576L153.6 332.385L153.772 332.192L153.941 331.996L154.108 331.799L154.272 331.599L154.433 331.397L154.592 331.194L154.748 330.988L154.901 330.781L155.051 330.573L155.198 330.362L155.342 330.15L155.484 329.936L155.623 329.72L155.758 329.503L155.891 329.285L156.021 329.066L156.147 328.845L156.271 328.623L156.392 328.4L156.509 328.176L156.624 327.95L156.735 327.724L156.843 327.497L156.949 327.269L157.051 327.04L157.15 326.811L157.246 326.58L157.339 326.35L157.429 326.118L157.515 325.887L157.599 325.655L157.679 325.422L157.756 325.189L157.831 324.956L157.902 324.723L157.97 324.489L158.036 324.256L158.098 324.022L158.157 323.789L158.213 323.555L158.266 323.323L158.317 323.089L158.364 322.856L158.408 322.624L158.45 322.392L158.488 322.16L158.524 321.928L158.557 321.698L158.588 321.467L158.615 321.238L158.639 321.008L158.661 320.78L158.68 320.552L158.697 320.325L158.711 320.099L158.722 319.874L158.731 319.649L158.737 319.425L158.741 319.203L158.742 318.981V21.0189L158.741 20.7969L158.737 20.5745L158.731 20.3507L158.722 20.1264L158.711 19.9011L158.697 19.6748L158.68 19.4477L158.661 19.22L158.639 18.9914L158.615 18.7623L158.588 18.5327L158.557 18.3022L158.524 18.0712L158.488 17.8401L158.45 17.6082L158.408 17.3762L158.364 17.1433L158.317 16.9109L158.266 16.6775L158.213 16.4441L158.157 16.2107L158.098 15.9773L158.036 15.7439L157.97 15.5105L157.902 15.2771L157.831 15.0437L157.756 14.8103L157.679 14.5779L157.599 14.345L157.515 14.113L157.429 13.881L157.339 13.65L157.246 13.419L157.15 13.189L157.051 12.9594L156.949 12.7308L156.843 12.5026L156.735 12.2754L156.624 12.0497L156.509 11.8244L156.392 11.6001L156.271 11.3767L156.147 11.1548L156.021 10.9343L155.891 10.7147L155.758 10.4966L155.623 10.2794L155.484 10.0642L155.342 9.85035L155.198 9.63796L155.051 9.42747L154.901 9.21842L154.748 9.01128L154.592 8.80604L154.433 8.60272L154.272 8.40083L154.108 8.20132L153.941 8.00372L153.772 7.80803L153.6 7.61473L153.426 7.42334L153.249 7.23433L153.07 7.04771L152.888 6.86348L152.704 6.68116L152.518 6.5017L152.329 6.32462L152.138 6.14994L151.945 5.97763L151.749 5.8082L151.552 5.64115L151.353 5.47696L151.152 5.31564L150.948 5.1567L150.743 5.00063L150.537 4.84742L150.328 4.69707L150.118 4.54959L149.906 4.40497L149.692 4.26322L149.477 4.12433L149.261 3.9883L149.043 3.85561L148.824 3.72579L148.603 3.59883L148.382 3.47474L148.159 3.35398L147.935 3.23657L147.71 3.12154L147.485 3.01034L147.258 2.90151L147.03 2.79603L146.802 2.69389L146.572 2.59462L146.343 2.49868L146.113 2.40561L145.881 2.3154L145.65 2.22902L145.418 2.14501L145.186 2.06435L144.954 1.98703L144.721 1.91257L144.488 1.84098L144.255 1.77273L144.022 1.70734L143.789 1.64529L143.556 1.58611L143.323 1.52979L143.09 1.47633L142.857 1.42622L142.624 1.37849L142.392 1.3341L142.16 1.29258L141.929 1.25392L141.698 1.21812L141.467 1.18519L141.238 1.15512L141.008 1.12744L140.779 1.10309L140.551 1.08114L140.324 1.06157L140.097 1.04534L139.872 1.03102L139.646 1.02005L139.422 1.01098L139.199 1.00477L138.977 1.00143L138.756 1H20.7288L20.5073 1.00143L20.2852 1.00477L20.0617 1.01098L19.8377 1.02005L19.6128 1.03102L19.3869 1.04534L19.1601 1.06157L18.9328 1.08114L18.7046 1.10309L18.4758 1.12744L18.2466 1.15512L18.0165 1.18519L17.7858 1.21812L17.5552 1.25392L17.3236 1.29258L17.092 1.3341L16.8595 1.37849L16.6274 1.42622L16.3944 1.47633L16.1613 1.52979L15.9283 1.58611L15.6953 1.64529L15.4623 1.70734L15.2293 1.77273L14.9962 1.84098L14.7632 1.91257L14.5302 1.98703L14.2981 2.06435L14.0656 2.14501L13.834 2.22902L13.6024 2.3154L13.3718 2.40561L13.1411 2.49868L12.9114 2.59462L12.6822 2.69389L12.454 2.79603L12.2262 2.90151L11.9994 3.01034L11.774 3.12154L11.5491 3.23657L11.3251 3.35398L11.1021 3.47474L10.8805 3.59883L10.6603 3.72579L10.4411 3.85561L10.2234 3.9883L10.0065 4.12433L9.79163 4.26322L9.57815 4.40497L9.36609 4.54959L9.15595 4.69707L8.94723 4.84742L8.74042 5.00063L8.53551 5.1567L8.33251 5.31564L8.13094 5.47696L7.93175 5.64115L7.73447 5.8082L7.5391 5.97763L7.3461 6.14994L7.15502 6.32462L6.96631 6.5017L6.77999 6.68116L6.59605 6.86348L6.41402 7.04771L6.23485 7.23433L6.05806 7.42334L5.88365 7.61473L5.71162 7.80803L5.54246 8.00372L5.37567 8.20132L5.21175 8.40083L5.05068 8.60272L4.892 8.80604L4.73618 9.01128L4.58321 9.21842L4.43311 9.42747L4.28586 9.63796L4.14147 9.85035L3.99995 10.0642L3.86128 10.2794L3.72547 10.4966L3.59299 10.7147L3.46338 10.9343L3.33662 11.1548L3.21273 11.3767L3.09216 11.6001L2.97494 11.8244L2.8601 12.0497L2.74907 12.2754L2.64042 12.5026L2.53511 12.7308L2.43313 12.9594L2.33401 13.189L2.23823 13.419L2.14531 13.65L2.05525 13.881L1.969 14.113L1.88513 14.345L1.80459 14.5779L1.7274 14.8103L1.65306 15.0437L1.58158 15.2771L1.51344 15.5105L1.44815 15.7439L1.38621 15.9773L1.32712 16.2107L1.27089 16.4441L1.21752 16.6775L1.16748 16.9109L1.11983 17.1433L1.07551 17.3762L1.03405 17.6082L0.995455 17.8401L0.959716 18.0712L0.926835 18.3022L0.896814 18.5327L0.869177 18.7623L0.844873 18.9914L0.822954 19.22L0.803416 19.4477L0.787214 19.6748L0.772919 19.9011L0.761957 20.1264L0.752905 20.3507L0.74671 20.5745L0.743374 20.7969L0.741943 21.0189V318.981Z" stroke="black" stroke-width="1.5" stroke-miterlimit="10" stroke-linecap="round" stroke-linejoin="round"/>
</svg>
