<svg width="135" height="290" viewBox="0 0 135 290" fill="none" xmlns="http://www.w3.org/2000/svg">
<mask id="path-1-inside-1_96_4" fill="white">
<path d="M63.0192 145.819C62.6467 145.612 62.3631 145.333 62.1692 144.983C61.9753 144.633 61.8784 144.25 61.8784 143.837C61.8784 143.289 62.0981 142.703 62.5374 142.078L64.3609 139.537C64.3676 139.53 64.3853 139.508 64.4134 139.469C64.4416 139.431 64.4789 139.401 64.5228 139.379C64.5677 139.357 64.6183 139.346 64.6756 139.346H65.1435C65.2008 139.346 65.2467 139.366 65.282 139.408C65.3169 139.449 65.3341 139.499 65.3341 139.556C65.3341 139.588 65.3183 139.629 65.2863 139.681L63.892 141.63C64.0577 141.592 64.242 141.573 64.4459 141.573C64.9105 141.573 65.3197 141.676 65.6726 141.883C66.026 142.09 66.2996 142.364 66.4944 142.705C66.6882 143.045 66.7852 143.42 66.7852 143.828C66.7852 144.236 66.6882 144.616 66.4944 144.969C66.3 145.323 66.0183 145.605 65.6487 145.815C65.2791 146.026 64.8432 146.131 64.3404 146.131C63.8328 146.13 63.3921 146.026 63.0192 145.819ZM65.1063 145.164C65.3417 145.05 65.5298 144.879 65.6697 144.654C65.8096 144.427 65.8798 144.155 65.8798 143.837C65.8798 143.525 65.8082 143.255 65.665 143.029C65.5217 142.803 65.3321 142.631 65.0967 142.513C64.8613 142.396 64.6068 142.336 64.3327 142.336C64.0587 142.336 63.8042 142.396 63.5683 142.513C63.3329 142.631 63.1447 142.803 63.0048 143.029C62.8649 143.256 62.7952 143.525 62.7952 143.837C62.7952 144.155 62.8649 144.427 63.0048 144.654C63.1447 144.88 63.3329 145.05 63.5683 145.164C63.8037 145.279 64.0587 145.336 64.3327 145.336C64.6126 145.337 64.8699 145.279 65.1063 145.164Z"/>
</mask>
<path d="M63.0192 145.819L63.7481 144.508L63.7475 144.507L63.0192 145.819ZM62.5374 142.078L61.3187 141.203L61.3144 141.209L61.3102 141.215L62.5374 142.078ZM64.3609 139.537L63.3 138.476L63.2135 138.563L63.1422 138.662L64.3609 139.537ZM64.5228 139.379L65.1939 140.721L64.5228 139.379ZM65.282 139.408L66.4314 138.444L66.4248 138.436L65.282 139.408ZM65.2863 139.681L66.5063 140.553L66.5333 140.516L66.5578 140.476L65.2863 139.681ZM63.892 141.63L62.672 140.757L60.3646 143.983L64.2292 143.091L63.892 141.63ZM65.6726 141.883L66.4318 140.589L66.4299 140.588L65.6726 141.883ZM66.4944 142.705L67.798 141.963L67.7969 141.961L66.4944 142.705ZM66.4944 144.969L67.8089 145.692L67.8096 145.691L66.4944 144.969ZM64.3404 146.131L64.3376 147.631H64.3404V146.131ZM65.1063 145.164L64.4517 143.815L64.4494 143.816L65.1063 145.164ZM65.6697 144.654L66.9443 145.444L66.9458 145.442L65.6697 144.654ZM65.0967 142.513L65.7689 141.172L65.7668 141.171L65.0967 142.513ZM63.5683 142.513L62.8993 141.171L62.8961 141.172L63.5683 142.513ZM63.0048 143.029L61.7295 142.24L61.7287 142.241L63.0048 143.029ZM63.0048 144.654L61.7287 145.442L61.7295 145.443L63.0048 144.654ZM63.5683 145.164L64.2251 143.816L64.2229 143.815L63.5683 145.164ZM64.3327 145.336L64.3353 143.836H64.3327V145.336ZM63.7475 144.507C63.6041 144.428 63.5305 144.345 63.4815 144.256L60.8569 145.709C61.1957 146.321 61.6893 146.796 62.2908 147.13L63.7475 144.507ZM63.4815 144.256C63.4151 144.136 63.3784 144.005 63.3784 143.837H60.3784C60.3784 144.495 60.5356 145.129 60.8569 145.709L63.4815 144.256ZM63.3784 143.837C63.3784 143.698 63.4347 143.41 63.7645 142.941L61.3102 141.215C60.7614 141.996 60.3784 142.88 60.3784 143.837H63.3784ZM63.756 142.953L65.5796 140.411L63.1422 138.662L61.3187 141.203L63.756 142.953ZM65.4219 140.597C65.4999 140.519 65.5599 140.44 65.5611 140.438C65.5817 140.412 65.6023 140.385 65.6209 140.359L63.206 138.579C63.1965 138.592 63.1941 138.595 63.1971 138.591C63.1985 138.59 63.2052 138.581 63.2157 138.569C63.221 138.562 63.2299 138.552 63.2414 138.539C63.2515 138.527 63.2721 138.504 63.3 138.476L65.4219 140.597ZM65.6209 140.359C65.494 140.532 65.3389 140.648 65.1939 140.721L63.8517 138.038C63.6188 138.154 63.3893 138.331 63.206 138.579L65.6209 140.359ZM65.1939 140.721C65.0006 140.817 64.8154 140.846 64.6756 140.846V137.846C64.4212 137.846 64.1348 137.896 63.8517 138.038L65.1939 140.721ZM64.6756 140.846H65.1435V137.846H64.6756V140.846ZM65.1435 140.846C64.9898 140.846 64.8022 140.817 64.6072 140.73C64.4101 140.641 64.2539 140.514 64.1392 140.379L66.4248 138.436C66.0883 138.04 65.6151 137.846 65.1435 137.846V140.846ZM64.1327 140.372C64.0381 140.259 63.9587 140.124 63.9054 139.972C63.8526 139.821 63.8341 139.678 63.8341 139.556H66.8341C66.8341 139.172 66.7091 138.775 66.4313 138.444L64.1327 140.372ZM63.8341 139.556C63.8341 139.332 63.8877 139.163 63.9214 139.075C63.9574 138.981 63.9954 138.916 64.0148 138.885L66.5578 140.476C66.6297 140.361 66.8341 140.022 66.8341 139.556H63.8341ZM64.0663 138.808L62.672 140.757L65.112 142.503L66.5063 140.553L64.0663 138.808ZM64.2292 143.091C64.2652 143.083 64.3341 143.073 64.4459 143.073V140.073C64.15 140.073 63.8502 140.1 63.5549 140.168L64.2292 143.091ZM64.4459 143.073C64.6805 143.073 64.8215 143.122 64.9153 143.177L66.4299 140.588C65.818 140.23 65.1406 140.073 64.4459 140.073V143.073ZM64.9135 143.176C65.0508 143.257 65.1327 143.345 65.1918 143.449L67.7969 141.961C67.4664 141.382 67.0011 140.923 66.4318 140.589L64.9135 143.176ZM65.1907 143.447C65.2505 143.552 65.2852 143.669 65.2852 143.828H68.2852C68.2852 143.171 68.126 142.539 67.798 141.963L65.1907 143.447ZM65.2852 143.828C65.2852 143.986 65.2504 144.118 65.1791 144.248L67.8096 145.691C68.126 145.113 68.2852 144.485 68.2852 143.828H65.2852ZM65.1799 144.247C65.1263 144.344 65.0487 144.431 64.9059 144.512L66.3916 147.119C66.9879 146.779 67.4738 146.301 67.8089 145.692L65.1799 144.247ZM64.9059 144.512C64.8018 144.572 64.6319 144.631 64.3404 144.631V147.631C65.0545 147.631 65.7565 147.481 66.3916 147.119L64.9059 144.512ZM64.3432 144.631C64.0402 144.63 63.8592 144.57 63.7481 144.508L62.2902 147.13C62.9249 147.483 63.6254 147.629 64.3376 147.631L64.3432 144.631ZM65.7609 146.514C66.2576 146.273 66.6583 145.905 66.9443 145.444L64.3951 143.863C64.3948 143.863 64.3964 143.861 64.4002 143.856C64.404 143.851 64.4093 143.846 64.416 143.84C64.4306 143.826 64.4443 143.818 64.4517 143.815L65.7609 146.514ZM66.9458 145.442C67.2581 144.937 67.3798 144.379 67.3798 143.837H64.3798C64.3798 143.886 64.3744 143.906 64.3746 143.906C64.3746 143.905 64.3759 143.901 64.3792 143.893C64.3825 143.885 64.3873 143.875 64.3936 143.865L66.9458 145.442ZM67.3798 143.837C67.3798 143.289 67.2514 142.73 66.9319 142.226L64.3981 143.832C64.3918 143.822 64.3867 143.813 64.3829 143.804C64.3791 143.795 64.3772 143.789 64.3765 143.786C64.3751 143.781 64.3798 143.795 64.3798 143.837H67.3798ZM66.9319 142.226C66.645 141.774 66.2512 141.414 65.7689 141.172L64.4245 143.854C64.4248 143.854 64.4228 143.853 64.4191 143.851C64.4154 143.848 64.4113 143.845 64.4071 143.841C64.403 143.838 64.4 143.834 64.3981 143.832C64.3963 143.83 64.3964 143.83 64.3981 143.832L66.9319 142.226ZM65.7668 141.171C65.3163 140.946 64.8315 140.836 64.3327 140.836V143.836C64.3822 143.836 64.4064 143.845 64.4267 143.855L65.7668 141.171ZM64.3327 140.836C63.8338 140.836 63.3495 140.946 62.8993 141.171L64.2372 143.856C64.2589 143.845 64.2835 143.836 64.3327 143.836V140.836ZM62.8961 141.172C62.4112 141.415 62.0148 141.779 61.7295 142.24L64.2802 143.819C64.2806 143.818 64.2753 143.826 64.2635 143.837C64.2517 143.848 64.2421 143.853 64.2405 143.854L62.8961 141.172ZM61.7287 142.241C61.4185 142.743 61.2952 143.295 61.2952 143.837H64.2952C64.2952 143.792 64.3001 143.775 64.2995 143.778C64.2991 143.779 64.2977 143.784 64.2945 143.792C64.2911 143.799 64.2866 143.808 64.2809 143.818L61.7287 142.241ZM61.2952 143.837C61.2952 144.377 61.4157 144.935 61.7287 145.442L64.2809 143.865C64.2875 143.876 64.2924 143.886 64.2958 143.894C64.2992 143.902 64.3005 143.907 64.3005 143.907C64.3007 143.907 64.2952 143.886 64.2952 143.837H61.2952ZM61.7295 145.443C62.0165 145.907 62.4181 146.273 62.9137 146.514L64.2229 143.815C64.2295 143.818 64.2432 143.826 64.2581 143.839C64.265 143.846 64.2705 143.852 64.2746 143.857C64.2786 143.861 64.2803 143.864 64.2802 143.864L61.7295 145.443ZM62.9114 146.513C63.3613 146.732 63.8422 146.836 64.3327 146.836V143.836C64.2751 143.836 64.2461 143.826 64.2251 143.816L62.9114 146.513ZM64.3302 146.836C64.8241 146.837 65.3088 146.734 65.7632 146.513L64.4494 143.816C64.431 143.825 64.4011 143.836 64.3353 143.836L64.3302 146.836Z" fill="black" mask="url(#path-1-inside-1_96_4)"/>
<path d="M68.3823 145.442C68.3833 145.443 68.3843 145.444 68.3853 145.445C68.3864 145.446 68.3874 145.447 68.3885 145.448C68.399 145.459 68.4093 145.47 68.4192 145.483C68.4146 145.488 68.41 145.493 68.4053 145.499C68.4044 145.5 68.4034 145.501 68.4025 145.502C68.4016 145.503 68.4006 145.504 68.3997 145.505C68.3931 145.512 68.3863 145.518 68.3791 145.525L68.3446 145.491L68.3389 145.485L68.317 145.463L68.3363 145.445L68.3417 145.44L68.3615 145.422C68.3686 145.428 68.3756 145.435 68.3823 145.442ZM68.3418 145.493L68.3765 145.528C68.3647 145.539 68.3521 145.549 68.3388 145.56C68.3265 145.55 68.3149 145.54 68.304 145.53C68.3022 145.529 68.3004 145.527 68.2987 145.525C68.2905 145.517 68.2827 145.51 68.2754 145.502L68.314 145.466L68.3361 145.488L68.3418 145.493ZM68.2752 145.501C68.2695 145.495 68.264 145.489 68.2585 145.483C68.2695 145.469 68.2808 145.456 68.2924 145.445L68.3138 145.466L68.2752 145.501ZM68.3361 145.445L68.3168 145.463L68.2955 145.442C68.3014 145.436 68.3075 145.43 68.3137 145.424C68.3155 145.423 68.3172 145.421 68.319 145.42C68.3254 145.414 68.332 145.408 68.3388 145.403C68.3465 145.409 68.354 145.415 68.3613 145.422L68.3415 145.44L68.3361 145.445Z" stroke="black" stroke-width="1.5"/>
<path d="M71.0878 145.835C71.0782 145.83 71.0686 145.826 71.059 145.821C71.0592 145.821 71.0594 145.821 71.0596 145.821L71.3603 145.197L71.0878 145.835ZM71.0878 145.835L71.0649 145.886L71.0879 145.835M71.0878 145.835L71.0879 145.835M71.0879 145.835C71.4763 146.016 71.9053 146.095 72.3546 146.096V146.131L71.0879 145.835Z" stroke="black" stroke-width="1.5"/>
<mask id="path-5-inside-2_96_4" fill="white">
<path d="M75.816 141.008C75.7873 140.97 75.7792 140.922 75.7921 140.864L76.0017 139.527C76.0275 139.342 76.1163 139.25 76.2696 139.25H76.8808C76.9252 139.25 76.9619 139.265 76.9901 139.298C77.0192 139.329 77.0331 139.368 77.0331 139.412C77.0331 139.476 77.0235 139.527 77.0044 139.565L76.5078 140.855C76.4759 140.925 76.4405 140.978 76.4028 141.012C76.3646 141.047 76.3073 141.065 76.2309 141.065H75.9348C75.8847 141.065 75.8446 141.046 75.816 141.008ZM77.3153 141.008C77.2866 140.97 77.279 140.922 77.2914 140.864L77.5015 139.527C77.5268 139.342 77.6161 139.25 77.7689 139.25H78.3801C78.4245 139.25 78.4613 139.265 78.4895 139.298C78.5186 139.329 78.5329 139.368 78.5329 139.412C78.5329 139.476 78.5229 139.527 78.5038 139.565L78.0072 140.855C77.9757 140.925 77.9403 140.978 77.9021 141.012C77.8639 141.047 77.8066 141.065 77.7302 141.065H77.4342C77.3836 141.065 77.3439 141.046 77.3153 141.008Z"/>
</mask>
<path d="M75.816 141.008L74.6157 141.908L74.6212 141.915L75.816 141.008ZM75.7921 140.864L77.2555 141.193L77.2664 141.145L77.274 141.097L75.7921 140.864ZM76.0017 139.527L77.4836 139.759L77.4856 139.746L77.4873 139.734L76.0017 139.527ZM76.9901 139.298L75.8569 140.28L75.8723 140.298L75.8883 140.316L76.9901 139.298ZM77.0044 139.565L75.6627 138.894L75.6305 138.959L75.6046 139.026L77.0044 139.565ZM76.5078 140.855L77.8713 141.48L77.8908 141.437L77.9077 141.394L76.5078 140.855ZM76.4028 141.012L77.4142 142.12L77.4211 142.114L76.4028 141.012ZM75.9348 141.065V139.565H75.9277L75.9206 139.565L75.9348 141.065ZM77.3153 141.008L76.115 141.908L76.1205 141.915L77.3153 141.008ZM77.2914 140.864L78.7574 141.182L78.7666 141.14L78.7732 141.097L77.2914 140.864ZM77.5015 139.527L78.9833 139.759L78.9856 139.745L78.9877 139.73L77.5015 139.527ZM78.4895 139.298L77.3562 140.28L77.3716 140.298L77.3876 140.316L78.4895 139.298ZM78.5038 139.565L77.162 138.894L77.1298 138.959L77.1039 139.026L78.5038 139.565ZM78.0072 140.855L79.3741 141.472L79.3917 141.433L79.407 141.394L78.0072 140.855ZM77.4342 141.065V139.565H77.4271L77.42 139.565L77.4342 141.065ZM77.0162 140.108C77.1487 140.285 77.2333 140.488 77.268 140.697C77.3016 140.898 77.2833 141.07 77.2555 141.193L74.3286 140.535C74.2427 140.917 74.2661 141.441 74.6157 141.908L77.0162 140.108ZM77.274 141.097L77.4836 139.759L74.5198 139.294L74.3102 140.632L77.274 141.097ZM77.4873 139.734C77.4756 139.818 77.423 140.096 77.1667 140.361C76.8746 140.663 76.5147 140.75 76.2696 140.75V137.75C75.8712 137.75 75.3903 137.882 75.0089 138.277C74.6635 138.634 74.5535 139.051 74.5161 139.319L77.4873 139.734ZM76.2696 140.75H76.8808V137.75H76.2696V140.75ZM76.8808 140.75C76.723 140.75 76.5345 140.721 76.3395 140.635C76.1419 140.549 75.9799 140.422 75.8569 140.28L78.1234 138.315C77.7888 137.929 77.3261 137.75 76.8808 137.75V140.75ZM75.8883 140.316C75.7748 140.193 75.6803 140.044 75.617 139.874C75.5546 139.707 75.5331 139.547 75.5331 139.412H78.5331C78.5331 139.025 78.3999 138.613 78.092 138.28L75.8883 140.316ZM75.5331 139.412C75.5331 139.347 75.5394 139.141 75.6627 138.894L78.3462 140.235C78.5076 139.912 78.5331 139.605 78.5331 139.412H75.5331ZM75.6046 139.026L75.108 140.316L77.9077 141.394L78.4043 140.104L75.6046 139.026ZM75.1444 140.229C75.1548 140.207 75.1751 140.166 75.2092 140.115C75.2426 140.065 75.2987 139.99 75.3845 139.911L77.4211 142.114C77.6575 141.895 77.7937 141.649 77.8713 141.48L75.1444 140.229ZM75.3914 139.905C75.7386 139.588 76.113 139.565 76.2309 139.565V142.565C76.5016 142.565 76.9906 142.507 77.4142 142.12L75.3914 139.905ZM76.2309 139.565H75.9348V142.565H76.2309V139.565ZM75.9206 139.565C76.093 139.563 76.2998 139.595 76.5107 139.696C76.7239 139.797 76.8909 139.943 77.0107 140.101L74.6212 141.915C74.9534 142.353 75.4537 142.569 75.9491 142.564L75.9206 139.565ZM78.5155 140.108C78.8128 140.505 78.8113 140.933 78.7574 141.182L75.8254 140.547C75.7467 140.91 75.7605 141.435 76.1151 141.908L78.5155 140.108ZM78.7732 141.097L78.9833 139.759L76.0197 139.294L75.8096 140.632L78.7732 141.097ZM78.9877 139.73C78.9758 139.816 78.9229 140.095 78.6663 140.361C78.3746 140.663 78.0151 140.75 77.7689 140.75V137.75C77.37 137.75 76.8894 137.882 76.5085 138.277C76.1627 138.635 76.0525 139.052 76.0154 139.323L78.9877 139.73ZM77.7689 140.75H78.3801V137.75H77.7689V140.75ZM78.3801 140.75C78.2223 140.75 78.0338 140.721 77.8388 140.635C77.6413 140.549 77.4792 140.422 77.3562 140.28L79.6227 138.315C79.2881 137.929 78.8254 137.75 78.3801 137.75V140.75ZM77.3876 140.316C77.2774 140.196 77.1834 140.05 77.1195 139.882C77.0562 139.715 77.0329 139.553 77.0329 139.412H80.0329C80.0329 139.013 79.8915 138.605 79.5913 138.28L77.3876 140.316ZM77.0329 139.412C77.0329 139.336 77.0422 139.134 77.162 138.894L79.8456 140.235C80.0036 139.919 80.0329 139.616 80.0329 139.412H77.0329ZM77.1039 139.026L76.6073 140.316L79.407 141.394L79.9036 140.104L77.1039 139.026ZM76.6402 140.237C76.6516 140.212 76.673 140.169 76.7089 140.115C76.7442 140.062 76.8024 139.985 76.8908 139.905L78.9135 142.12C79.1566 141.898 79.2954 141.647 79.3741 141.472L76.6402 140.237ZM76.8908 139.905C77.238 139.588 77.6123 139.565 77.7302 139.565V142.565C78.001 142.565 78.4899 142.507 78.9135 142.12L76.8908 139.905ZM77.7302 139.565H77.4342V142.565H77.7302V139.565ZM77.42 139.565C77.5906 139.563 77.7984 139.595 78.0115 139.696C78.2268 139.799 78.3926 139.947 78.5101 140.101L76.1205 141.915C76.4513 142.351 76.9499 142.569 77.4483 142.564L77.42 139.565Z" fill="black" mask="url(#path-5-inside-2_96_4)"/>
<path d="M4.18286 286.438L65.6085 150.91" stroke="black" stroke-width="1.5" stroke-miterlimit="10" stroke-linecap="round" stroke-linejoin="round"/>
<path d="M72.4709 135.159L131.993 1.76611" stroke="black" stroke-width="1.5" stroke-miterlimit="10" stroke-linecap="round" stroke-linejoin="round"/>
<path d="M2.90405 282.786L4.18279 286.438L7.83277 285.158" stroke="black" stroke-width="1.5" stroke-miterlimit="10" stroke-linecap="round" stroke-linejoin="round"/>
<path d="M133.273 5.41805L131.994 1.76611L128.344 3.04601" stroke="black" stroke-width="1.5" stroke-miterlimit="10" stroke-linecap="round" stroke-linejoin="round"/>
<path d="M12.6035 8.55334C12.6451 8.5156 12.6656 8.46448 12.6656 8.40094V8.0474C12.6656 7.97717 12.6465 7.92319 12.6088 7.88497L12.6035 8.55334ZM12.6035 8.55334C12.562 8.59157 12.5099 8.61067 12.446 8.61067M12.6035 8.55334L12.446 8.61067M12.446 8.61067H9.69557H12.446Z" stroke="black" stroke-width="1.5"/>
<path d="M15.3488 13.679L15.3733 13.628L15.3488 13.679Z" stroke="black" stroke-width="1.5"/>
<mask id="path-13-inside-3_96_4" fill="white">
<path d="M20.5207 14.4545C20.4859 14.413 20.4682 14.3638 20.4682 14.306L20.4873 14.22L22.8748 8.63026H19.7233C19.6593 8.63026 19.6073 8.60972 19.5657 8.56815C19.5242 8.52707 19.5037 8.47451 19.5037 8.4105V8.05744C19.5037 7.98721 19.5228 7.93131 19.561 7.88975C19.5992 7.84818 19.6531 7.82764 19.7233 7.82764H23.6197C23.6894 7.82764 23.7438 7.84818 23.782 7.88975C23.8202 7.93131 23.8393 7.98673 23.8393 8.05744V8.38231C23.8393 8.49697 23.8135 8.62118 23.7629 8.75495L21.4041 14.2778C21.3726 14.3475 21.3372 14.4053 21.299 14.4498C21.2609 14.4942 21.2069 14.5166 21.1367 14.5166H20.6592C20.6019 14.5162 20.5561 14.4956 20.5207 14.4545Z"/>
</mask>
<path d="M20.5207 14.4545L19.3714 15.4184L19.3774 15.4255L19.3835 15.4326L20.5207 14.4545ZM20.4682 14.306L19.0039 13.9807L18.9682 14.1414V14.306H20.4682ZM20.4873 14.22L19.1079 13.6308L19.0532 13.7588L19.023 13.8947L20.4873 14.22ZM22.8748 8.63026L24.2542 9.21945L25.1466 7.13026H22.8748V8.63026ZM19.5657 8.56815L20.6267 7.50776L20.6205 7.50166L19.5657 8.56815ZM23.7629 8.75495L25.1424 9.34413L25.1547 9.3152L25.1659 9.28578L23.7629 8.75495ZM21.4041 14.2778L22.771 14.8954L22.7774 14.8812L22.7835 14.8669L21.4041 14.2778ZM20.6592 14.5166L20.6467 16.0166H20.6592V14.5166ZM21.6701 13.4907C21.7622 13.6006 21.8412 13.7331 21.895 13.8847C21.9485 14.0353 21.9682 14.1797 21.9682 14.306H18.9682C18.9682 14.6992 19.0993 15.094 19.3714 15.4184L21.6701 13.4907ZM21.9325 14.6312L21.9516 14.5452L19.023 13.8947L19.0039 13.9807L21.9325 14.6312ZM21.8667 14.8092L24.2542 9.21945L21.4953 8.04107L19.1079 13.6308L21.8667 14.8092ZM22.8748 7.13026H19.7233V10.1303H22.8748V7.13026ZM19.7233 7.13026C19.8538 7.13026 20.0147 7.15169 20.1863 7.21934C20.3606 7.28806 20.509 7.39008 20.6267 7.50778L18.5048 9.62853C18.8535 9.97747 19.2995 10.1303 19.7233 10.1303V7.13026ZM20.6205 7.50166C20.7437 7.62351 20.8467 7.77511 20.9152 7.94933C20.9825 8.12048 21.0037 8.28076 21.0037 8.4105H18.0037C18.0037 8.82847 18.1529 9.28054 18.5109 9.63465L20.6205 7.50166ZM21.0037 8.4105V8.05744H18.0037V8.4105H21.0037ZM21.0037 8.05744C21.0037 8.26728 20.9398 8.6062 20.6654 8.90476L18.4565 6.87473C18.1058 7.25642 18.0037 7.70713 18.0037 8.05744H21.0037ZM20.6654 8.90476C20.523 9.0597 20.3495 9.17399 20.1656 9.24429C19.9889 9.31178 19.8326 9.32764 19.7233 9.32764V6.32764C19.3458 6.32764 18.8469 6.45002 18.4565 6.87473L20.6654 8.90476ZM19.7233 9.32764H23.6197V6.32764H19.7233V9.32764ZM23.6197 9.32764C23.3838 9.32764 22.9925 9.24739 22.6776 8.90476L24.8865 6.87473C24.4952 6.44897 23.995 6.32764 23.6197 6.32764V9.32764ZM22.6776 8.90476C22.4041 8.60717 22.3393 8.26843 22.3393 8.05744H25.3393C25.3393 7.70503 25.2364 7.25545 24.8865 6.87473L22.6776 8.90476ZM22.3393 8.05744V8.38231H25.3393V8.05744H22.3393ZM22.3393 8.38231C22.3393 8.27362 22.3632 8.21568 22.36 8.22413L25.1659 9.28578C25.2639 9.02669 25.3393 8.72032 25.3393 8.38231H22.3393ZM22.3835 8.16578L20.0246 13.6886L22.7835 14.8669L25.1424 9.34413L22.3835 8.16578ZM20.0371 13.6602C20.0478 13.6365 20.0833 13.563 20.1616 13.4719L22.4365 15.4277C22.5912 15.2477 22.6973 15.0585 22.771 14.8954L20.0371 13.6602ZM20.1616 13.4719C20.2949 13.3169 20.4649 13.1929 20.6573 13.1135C20.8433 13.0366 21.0125 13.0166 21.1367 13.0166V16.0166C21.5554 16.0166 22.0602 15.8653 22.4365 15.4277L20.1616 13.4719ZM21.1367 13.0166H20.6592V16.0166H21.1367V13.0166ZM20.6717 13.0167C20.8218 13.018 21.0049 13.0467 21.1955 13.1321C21.3884 13.2186 21.543 13.3428 21.658 13.4765L19.3835 15.4326C19.7191 15.8229 20.1855 16.0127 20.6467 16.0166L20.6717 13.0167Z" fill="black" mask="url(#path-13-inside-3_96_4)"/>
<path d="M27.392 9.54771H27.5697L27.2344 9.60504C27.2755 9.56682 27.328 9.54771 27.392 9.54771Z" stroke="black" stroke-width="1.5"/>
<path d="M33.0646 9.54771H33.2423L32.907 9.60504C32.9481 9.56682 33.0006 9.54771 33.0646 9.54771Z" stroke="black" stroke-width="1.5"/>
<path d="M38.5699 14.4546C38.5283 14.4131 38.5078 14.361 38.5078 14.297V9.76787C38.5078 9.70433 38.5283 9.65178 38.5699 9.61069C38.6114 9.56913 38.6635 9.5481 38.7274 9.5481H39.1476C39.2111 9.5481 39.2637 9.56913 39.3052 9.61069C39.3468 9.65178 39.3673 9.70433 39.3673 9.76787V14.297C39.3673 14.361 39.3468 14.4131 39.3052 14.4546C39.2637 14.4962 39.2111 14.5167 39.1476 14.5167H38.7274M38.5699 14.4546C38.6114 14.4957 38.6639 14.5163 38.7274 14.5167M38.5699 14.4546L38.7274 14.2971V14.5167M38.5699 14.4546L38.7258 14.297L38.7274 14.2953V13.9787C38.6985 14.0168 38.6732 14.0606 38.654 14.1094C38.6254 14.182 38.6173 14.2478 38.6173 14.297V9.76787C38.6173 9.81763 38.6255 9.88343 38.654 9.95572C38.6729 10.0038 38.6981 10.0477 38.7274 10.0864C38.7422 10.1059 38.7581 10.1241 38.7747 10.1409C38.7758 10.1419 38.7768 10.1429 38.7778 10.1439L38.7747 10.1409C38.7758 10.1419 38.7768 10.1429 38.7778 10.1439C38.821 10.1864 38.8748 10.2244 38.9375 10.2523C39.001 10.2241 39.0547 10.1858 39.0973 10.1439C39.0978 10.1434 39.0983 10.1429 39.0988 10.1424C39.0993 10.1419 39.0998 10.1414 39.1003 10.1409C39.117 10.1241 39.1329 10.1059 39.1476 10.0864C39.177 10.0477 39.2021 10.0038 39.2211 9.95572C39.2496 9.88343 39.2578 9.81763 39.2578 9.76787V14.297C39.2578 14.2478 39.2497 14.182 39.2211 14.1094C39.2019 14.0606 39.1765 14.0168 39.1476 13.9787C39.1327 13.9591 39.1168 13.9409 39.1003 13.9244L38.9375 14.0872L38.7291 14.2955L38.7291 14.297L38.7274 14.5167M38.868 7.99861C38.8876 7.98043 38.9098 7.96292 38.9343 7.94683L39.024 8.01893L39.0209 8.01588C39.0219 8.01689 39.0229 8.01791 39.0239 8.01894C39.0343 8.02936 39.0444 8.04034 39.054 8.05184L38.9826 8.12249L38.9824 8.12267L38.9501 8.15459L38.918 8.12485L38.9154 8.12249L38.8272 8.04085C38.8403 8.02567 38.8539 8.01165 38.8677 7.99883C38.8678 7.99876 38.8679 7.99869 38.868 7.99861ZM38.9866 8.12685L39.0572 8.0556C39.0789 8.0819 39.0986 8.11087 39.1157 8.14218C39.1011 8.16849 39.0848 8.19256 39.0675 8.21422C39.0674 8.21427 39.0674 8.21433 39.0673 8.21438C39.0597 8.22387 39.052 8.2329 39.044 8.24146L38.9548 8.15895L38.9864 8.12703L38.9866 8.12685ZM38.9158 8.12703L38.9478 8.15692L38.844 8.25951C38.8344 8.24974 38.8247 8.23911 38.8152 8.22762C38.8146 8.22694 38.814 8.22626 38.8135 8.22558C38.7937 8.20152 38.7747 8.17377 38.7577 8.14234C38.7776 8.10503 38.8007 8.07175 38.8256 8.04269L38.9133 8.12467L38.9158 8.12703ZM38.9354 14.085L38.7291 14.2936L38.7315 13.9734C38.7453 13.9558 38.7598 13.9394 38.7747 13.9244C38.8191 13.8801 38.8742 13.841 38.9379 13.8126C38.9995 13.8402 39.0534 13.878 39.0973 13.9214L38.9354 14.085ZM38.9525 8.16134L39.0413 8.24439C39.0121 8.27566 38.9763 8.306 38.9341 8.33234C38.9011 8.31132 38.873 8.28822 38.8497 8.26519L38.9525 8.16134Z" stroke="black" stroke-width="1.5"/>
<path d="M4.41846 267.46L1.68384 270.196L4.41846 272.932" stroke="black" stroke-width="1.5" stroke-miterlimit="10" stroke-linecap="round" stroke-linejoin="round"/>
<path d="M1.68384 270.196H60.8557" stroke="black" stroke-width="1.5" stroke-miterlimit="10" stroke-linecap="round" stroke-linejoin="round"/>
<path d="M102.016 270.196H133.941" stroke="black" stroke-width="1.5" stroke-miterlimit="10" stroke-linecap="round" stroke-linejoin="round"/>
<path d="M131.201 267.465L133.936 270.201L131.201 272.937" stroke="black" stroke-width="1.5" stroke-miterlimit="10" stroke-linecap="round" stroke-linejoin="round"/>
<mask id="path-22-inside-4_96_4" fill="white">
<path d="M66.4991 273.134C66.4609 273.092 66.4418 273.04 66.4418 272.976V267.587L64.8374 268.82C64.793 268.858 64.7453 268.877 64.6942 268.877C64.6369 268.877 64.5829 268.846 64.5318 268.782L64.3026 268.485C64.2711 268.441 64.2549 268.396 64.2549 268.352C64.2549 268.282 64.2864 268.225 64.3504 268.18L66.4227 266.575C66.4924 266.531 66.5755 266.508 66.671 266.508H67.1199C67.1834 266.508 67.2359 266.529 67.2774 266.57C67.319 266.612 67.3395 266.664 67.3395 266.728V272.977C67.3395 273.041 67.319 273.093 67.2774 273.134C67.2359 273.176 67.1834 273.197 67.1199 273.197H66.6519C66.5884 273.196 66.5378 273.176 66.4991 273.134Z"/>
</mask>
<path d="M66.4991 273.134L65.3947 274.149L65.401 274.156L66.4991 273.134ZM66.4418 267.587H67.9418V264.543L65.528 266.398L66.4418 267.587ZM64.8374 268.82L63.9236 267.63L63.8905 267.656L63.8589 267.683L64.8374 268.82ZM64.5318 268.782L63.3455 269.7L63.3524 269.709L63.3594 269.717L64.5318 268.782ZM64.3026 268.485L63.0791 269.353L63.0972 269.379L63.1163 269.403L64.3026 268.485ZM64.3504 268.18L65.2059 269.412L65.238 269.39L65.2689 269.366L64.3504 268.18ZM66.4227 266.575L65.6165 265.31L65.5585 265.347L65.5041 265.389L66.4227 266.575ZM66.6519 273.197L66.6406 274.697H66.6519V273.197ZM67.6035 272.119C67.7154 272.241 67.8061 272.387 67.8656 272.55C67.9239 272.71 67.9418 272.858 67.9418 272.976H64.9418C64.9418 273.367 65.0706 273.796 65.3947 274.149L67.6035 272.119ZM67.9418 272.976V267.587H64.9418V272.976H67.9418ZM65.528 266.398L63.9236 267.63L65.7513 270.009L67.3557 268.777L65.528 266.398ZM63.8589 267.683C64.0443 267.523 64.334 267.377 64.6942 267.377V270.377C65.1566 270.377 65.5417 270.193 65.8159 269.957L63.8589 267.683ZM64.6942 267.377C65.2606 267.377 65.5948 267.709 65.7042 267.846L63.3594 269.717C63.5711 269.983 64.0131 270.377 64.6942 270.377V267.377ZM65.7181 267.864L65.4889 267.568L63.1163 269.403L63.3455 269.7L65.7181 267.864ZM65.5261 267.618C65.628 267.761 65.7549 268.014 65.7549 268.352H62.7549C62.7549 268.779 62.9142 269.121 63.0791 269.353L65.5261 267.618ZM65.7549 268.352C65.7549 268.552 65.7073 268.773 65.5915 268.982C65.4783 269.187 65.331 269.325 65.2059 269.412L63.4948 266.948C63.0706 267.243 62.7549 267.74 62.7549 268.352H65.7549ZM65.2689 269.366L67.3413 267.761L65.5041 265.389L63.4318 266.994L65.2689 269.366ZM67.2289 267.84C67.0233 267.971 66.8173 268.008 66.671 268.008V265.008C66.3337 265.008 65.9616 265.09 65.6165 265.31L67.2289 267.84ZM66.671 268.008H67.1199V265.008H66.671V268.008ZM67.1199 268.008C66.9881 268.008 66.8278 267.986 66.6577 267.919C66.4851 267.851 66.336 267.75 66.2165 267.631L68.3384 265.51C67.9885 265.16 67.5415 265.008 67.1199 265.008V268.008ZM66.2165 267.631C66.0969 267.511 65.9957 267.362 65.9279 267.189C65.8612 267.019 65.8395 266.859 65.8395 266.728H68.8395C68.8395 266.307 68.6883 265.86 68.3384 265.51L66.2165 267.631ZM65.8395 266.728V272.977H68.8395V266.728H65.8395ZM65.8395 272.977C65.8395 272.847 65.8609 272.686 65.9284 272.514C65.997 272.34 66.0989 272.192 66.2165 272.074L68.3384 274.195C68.687 273.846 68.8395 273.4 68.8395 272.977H65.8395ZM66.2165 272.074C66.336 271.955 66.4851 271.853 66.6577 271.785C66.8278 271.718 66.9881 271.697 67.1199 271.697V274.697C67.5415 274.697 67.9885 274.545 68.3384 274.195L66.2165 272.074ZM67.1199 271.697H66.6519V274.697H67.1199V271.697ZM66.6632 271.697C66.7909 271.698 66.9556 271.719 67.1335 271.792C67.3158 271.867 67.473 271.979 67.5972 272.112L65.401 274.156C65.759 274.541 66.2242 274.693 66.6406 274.697L66.6632 271.697Z" fill="black" mask="url(#path-22-inside-4_96_4)"/>
<mask id="path-24-inside-5_96_4" fill="white">
<path d="M71.7563 273.134C71.7148 273.092 71.6942 273.04 71.6942 272.976V271.581H68.5905C68.5265 271.581 68.4745 271.561 68.4329 271.519C68.3914 271.478 68.3708 271.425 68.3708 271.362V271.008C68.3708 270.919 68.4057 270.823 68.4759 270.721L71.3509 266.67C71.3824 266.619 71.4302 266.58 71.4942 266.551C71.5577 266.522 71.6279 266.508 71.7038 266.508H72.3532C72.4229 266.508 72.4773 266.527 72.5155 266.565C72.5537 266.603 72.5728 266.657 72.5728 266.727V270.779H73.4419C73.5054 270.779 73.5579 270.799 73.5994 270.841C73.6405 270.882 73.6615 270.934 73.6615 270.998V271.362C73.6615 271.425 73.6405 271.478 73.5994 271.519C73.5579 271.561 73.5054 271.581 73.4419 271.581H72.5728V272.976C72.5728 273.04 72.5523 273.092 72.5107 273.134C72.4692 273.176 72.4167 273.196 72.3532 273.196H71.9139C71.8504 273.196 71.7978 273.176 71.7563 273.134ZM69.364 270.798H71.7033V267.472L69.364 270.798Z"/>
</mask>
<path d="M71.6942 271.581H73.1942V270.081H71.6942V271.581ZM68.4759 270.721L67.2526 269.853L67.2468 269.861L67.2411 269.87L68.4759 270.721ZM71.3509 266.67L72.5742 267.538L72.6005 267.501L72.6244 267.463L71.3509 266.67ZM71.4942 266.551L70.8771 265.183L70.8724 265.186L71.4942 266.551ZM72.5728 270.779H71.0728V272.279H72.5728V270.779ZM73.5994 270.841L74.6665 269.787L74.6604 269.78L73.5994 270.841ZM73.5994 271.519L74.6604 272.58L74.6665 272.573L73.5994 271.519ZM72.5728 271.581V270.081H71.0728V271.581H72.5728ZM69.364 270.798L68.1372 269.935L66.475 272.298H69.364V270.798ZM71.7033 270.798V272.298H73.2033V270.798H71.7033ZM71.7033 267.472H73.2033V262.732L70.4764 266.609L71.7033 267.472ZM72.8172 272.074C72.9349 272.191 73.0368 272.34 73.1054 272.514C73.1729 272.685 73.1942 272.846 73.1942 272.976H70.1942C70.1942 273.399 70.3466 273.845 70.6954 274.194L72.8172 272.074ZM73.1942 272.976V271.581H70.1942V272.976H73.1942ZM71.6942 270.081H68.5905V273.081H71.6942V270.081ZM68.5905 270.081C68.721 270.081 68.8819 270.103 69.0535 270.17C69.2278 270.239 69.3762 270.341 69.4939 270.459L67.372 272.58C67.7207 272.928 68.1667 273.081 68.5905 273.081V270.081ZM69.4939 270.459C69.6134 270.578 69.7146 270.727 69.7824 270.9C69.8491 271.07 69.8708 271.23 69.8708 271.362H66.8708C66.8708 271.783 67.0222 272.23 67.372 272.58L69.4939 270.459ZM69.8708 271.362V271.008H66.8708V271.362H69.8708ZM69.8708 271.008C69.8708 271.317 69.7503 271.515 69.7106 271.573L67.2411 269.87C67.0611 270.131 66.8708 270.52 66.8708 271.008H69.8708ZM69.6992 271.589L72.5742 267.538L70.1276 265.802L67.2526 269.853L69.6992 271.589ZM72.6244 267.463C72.4721 267.707 72.2687 267.846 72.1159 267.916L70.8724 265.186C70.5916 265.313 70.2927 265.531 70.0774 265.877L72.6244 267.463ZM72.1113 267.918C71.9629 267.985 71.8201 268.008 71.7038 268.008V265.008C71.4356 265.008 71.1524 265.059 70.8771 265.183L72.1113 267.918ZM71.7038 268.008H72.3532V265.008H71.7038V268.008ZM72.3532 268.008C72.1491 268.008 71.7748 267.946 71.4546 267.625L73.5765 265.505C73.1799 265.108 72.6967 265.008 72.3532 265.008V268.008ZM71.4546 267.625C71.1354 267.306 71.0728 266.932 71.0728 266.727H74.0728C74.0728 266.382 73.972 265.9 73.5765 265.505L71.4546 267.625ZM71.0728 266.727V270.779H74.0728V266.727H71.0728ZM72.5728 272.279H73.4419V269.279H72.5728V272.279ZM73.4419 272.279C73.3101 272.279 73.1498 272.257 72.9797 272.19C72.8071 272.122 72.658 272.021 72.5385 271.901L74.6604 269.78C74.3105 269.43 73.8635 269.279 73.4419 269.279V272.279ZM72.5324 271.895C72.4189 271.78 72.3192 271.635 72.2513 271.464C72.1842 271.294 72.1615 271.133 72.1615 270.998H75.1615C75.1615 270.567 75.0037 270.128 74.6665 269.787L72.5324 271.895ZM72.1615 270.998V271.362H75.1615V270.998H72.1615ZM72.1615 271.362C72.1615 271.226 72.1845 271.065 72.2509 270.897C72.318 270.727 72.417 270.582 72.5324 270.465L74.6665 272.573C75.0048 272.231 75.1615 271.791 75.1615 271.362H72.1615ZM72.5385 270.459C72.658 270.339 72.8071 270.238 72.9797 270.17C73.1498 270.103 73.3101 270.081 73.4419 270.081V273.081C73.8635 273.081 74.3105 272.93 74.6604 272.58L72.5385 270.459ZM73.4419 270.081H72.5728V273.081H73.4419V270.081ZM71.0728 271.581V272.976H74.0728V271.581H71.0728ZM71.0728 272.976C71.0728 272.846 71.0942 272.685 71.1617 272.514C71.2303 272.34 71.3321 272.191 71.4498 272.074L73.5717 274.194C73.9204 273.845 74.0728 273.4 74.0728 272.976H71.0728ZM71.4498 272.074C71.5693 271.954 71.7184 271.853 71.891 271.785C72.0611 271.718 72.2214 271.696 72.3532 271.696V274.696C72.7748 274.696 73.2218 274.544 73.5717 274.194L71.4498 272.074ZM72.3532 271.696H71.9139V274.696H72.3532V271.696ZM71.9139 271.696C72.0456 271.696 72.2059 271.718 72.376 271.785C72.5487 271.853 72.6978 271.954 72.8172 272.074L70.6954 274.194C71.0452 274.544 71.4923 274.696 71.9139 274.696V271.696ZM69.364 272.298H71.7033V269.298H69.364V272.298ZM73.2033 270.798V267.472H70.2033V270.798H73.2033ZM70.4764 266.609L68.1372 269.935L70.5909 271.661L72.9302 268.335L70.4764 266.609Z" fill="black" mask="url(#path-24-inside-5_96_4)"/>
<mask id="path-26-inside-6_96_4" fill="white">
<path d="M77.6582 273.134C77.6166 273.092 77.5961 273.04 77.5961 272.976V271.581H74.4924C74.4284 271.581 74.3763 271.561 74.3348 271.519C74.2932 271.478 74.2727 271.425 74.2727 271.362V271.008C74.2727 270.919 74.3076 270.823 74.3778 270.721L77.2528 266.67C77.2843 266.619 77.332 266.58 77.396 266.551C77.4595 266.522 77.5297 266.508 77.6056 266.508H78.255C78.3247 266.508 78.3792 266.527 78.4174 266.565C78.4556 266.603 78.4747 266.657 78.4747 266.727V270.779H79.3437C79.4072 270.779 79.4597 270.799 79.5013 270.841C79.5424 270.882 79.5634 270.934 79.5634 270.998V271.362C79.5634 271.425 79.5424 271.478 79.5013 271.519C79.4597 271.561 79.4072 271.581 79.3437 271.581H78.4747V272.976C78.4747 273.04 78.4541 273.092 78.4126 273.134C78.3711 273.176 78.3185 273.196 78.255 273.196H77.8157C77.7517 273.196 77.6997 273.176 77.6582 273.134ZM75.2659 270.798H77.6052V267.472L75.2659 270.798Z"/>
</mask>
<path d="M77.5961 271.581H79.0961V270.081H77.5961V271.581ZM74.3778 270.721L73.1545 269.853L73.1487 269.861L73.143 269.87L74.3778 270.721ZM77.2528 266.67L78.476 267.538L78.5023 267.501L78.5263 267.463L77.2528 266.67ZM77.396 266.551L76.7789 265.183L76.7743 265.186L77.396 266.551ZM78.4747 270.779H76.9747V272.279H78.4747V270.779ZM79.5013 270.841L80.5684 269.787L80.5622 269.78L79.5013 270.841ZM79.5013 271.519L80.5622 272.58L80.5683 272.573L79.5013 271.519ZM78.4747 271.581V270.081H76.9747V271.581H78.4747ZM75.2659 270.798L74.039 269.935L72.3769 272.298H75.2659V270.798ZM77.6052 270.798V272.298H79.1052V270.798H77.6052ZM77.6052 267.472H79.1052V262.732L76.3783 266.609L77.6052 267.472ZM78.7191 272.074C78.8368 272.191 78.9386 272.34 79.0072 272.514C79.0747 272.685 79.0961 272.846 79.0961 272.976H76.0961C76.0961 273.399 76.2484 273.845 76.5972 274.194L78.7191 272.074ZM79.0961 272.976V271.581H76.0961V272.976H79.0961ZM77.5961 270.081H74.4924V273.081H77.5961V270.081ZM74.4924 270.081C74.6228 270.081 74.7838 270.103 74.9554 270.17C75.1297 270.239 75.2781 270.341 75.3957 270.459L73.2738 272.58C73.6225 272.928 74.0685 273.081 74.4924 273.081V270.081ZM75.3957 270.459C75.5152 270.578 75.6165 270.727 75.6842 270.9C75.751 271.07 75.7727 271.23 75.7727 271.362H72.7727C72.7727 271.783 72.924 272.23 73.2738 272.58L75.3957 270.459ZM75.7727 271.362V271.008H72.7727V271.362H75.7727ZM75.7727 271.008C75.7727 271.317 75.6522 271.515 75.6125 271.573L73.143 269.87C72.9629 270.131 72.7727 270.52 72.7727 271.008H75.7727ZM75.601 271.589L78.476 267.538L76.0295 265.802L73.1545 269.853L75.601 271.589ZM78.5263 267.463C78.374 267.707 78.1706 267.846 78.0178 267.916L76.7743 265.186C76.4935 265.313 76.1946 265.531 75.9792 265.877L78.5263 267.463ZM78.0131 267.918C77.8648 267.985 77.722 268.008 77.6056 268.008V265.008C77.3374 265.008 77.0542 265.059 76.7789 265.183L78.0131 267.918ZM77.6056 268.008H78.255V265.008H77.6056V268.008ZM78.255 268.008C78.0509 268.008 77.6766 267.946 77.3564 267.625L79.4783 265.505C79.0817 265.108 78.5986 265.008 78.255 265.008V268.008ZM77.3564 267.625C77.0373 267.306 76.9747 266.932 76.9747 266.727H79.9747C79.9747 266.382 79.8739 265.9 79.4783 265.505L77.3564 267.625ZM76.9747 266.727V270.779H79.9747V266.727H76.9747ZM78.4747 272.279H79.3437V269.279H78.4747V272.279ZM79.3437 272.279C79.212 272.279 79.0516 272.257 78.8816 272.19C78.7089 272.122 78.5598 272.021 78.4403 271.901L80.5622 269.78C80.2124 269.43 79.7653 269.279 79.3437 269.279V272.279ZM78.4342 271.895C78.3207 271.78 78.2211 271.635 78.1532 271.464C78.086 271.294 78.0634 271.133 78.0634 270.998H81.0634C81.0634 270.567 80.9055 270.128 80.5683 269.787L78.4342 271.895ZM78.0634 270.998V271.362H81.0634V270.998H78.0634ZM78.0634 271.362C78.0634 271.226 78.0863 271.065 78.1527 270.897C78.2198 270.727 78.3189 270.582 78.4342 270.465L80.5683 272.573C80.9067 272.231 81.0634 271.791 81.0634 271.362H78.0634ZM78.4403 270.459C78.5598 270.339 78.7089 270.238 78.8816 270.17C79.0516 270.103 79.212 270.081 79.3437 270.081V273.081C79.7653 273.081 80.2124 272.93 80.5622 272.58L78.4403 270.459ZM79.3437 270.081H78.4747V273.081H79.3437V270.081ZM76.9747 271.581V272.976H79.9747V271.581H76.9747ZM76.9747 272.976C76.9747 272.846 76.9961 272.685 77.0636 272.514C77.1321 272.34 77.234 272.191 77.3517 272.074L79.4735 274.194C79.8222 273.845 79.9747 273.4 79.9747 272.976H76.9747ZM77.3517 272.074C77.4711 271.954 77.6202 271.853 77.7929 271.785C77.963 271.718 78.1233 271.696 78.255 271.696V274.696C78.6766 274.696 79.1237 274.544 79.4735 274.194L77.3517 272.074ZM78.255 271.696H77.8157V274.696H78.255V271.696ZM77.8157 271.696C77.9462 271.696 78.1072 271.718 78.2788 271.785C78.453 271.854 78.6015 271.956 78.7191 272.074L76.5972 274.194C76.9459 274.543 77.3919 274.696 77.8157 274.696V271.696ZM75.2659 272.298H77.6052V269.298H75.2659V272.298ZM79.1052 270.798V267.472H76.1052V270.798H79.1052ZM76.3783 266.609L74.039 269.935L76.4928 271.661L78.832 268.335L76.3783 266.609Z" fill="black" mask="url(#path-26-inside-6_96_4)"/>
<path d="M84.6001 272.466C84.5999 272.466 84.5998 272.466 84.5996 272.467L84.1216 272.101M84.6001 272.466C84.6002 272.466 84.6003 272.466 84.6003 272.466L84.1218 272.1M84.6001 272.466C84.9753 271.976 85.1272 271.35 85.1449 270.677C85.1449 270.677 85.1449 270.677 85.1449 270.676C85.1451 270.669 85.1453 270.662 85.1454 270.655C85.1518 270.463 85.1556 270.197 85.1557 269.861C85.1557 269.855 85.1557 269.848 85.1557 269.842C85.1557 269.492 85.152 269.222 85.1454 269.037L84.6001 272.466ZM84.1216 272.101C84.1217 272.101 84.1217 272.1 84.1218 272.1M84.1216 272.101C84.1201 272.102 84.1187 272.104 84.1172 272.106L84.0041 272.011M84.1216 272.101L84.0041 272.011M84.1218 272.1L84.0041 272.011M84.1218 272.1C84.3751 271.776 84.5416 271.315 84.5634 270.658L84.5635 270.654L84.5635 270.654C84.5637 270.649 84.5639 270.645 84.564 270.64L84.3957 270.635M84.0041 272.011L84.3419 267.425L84.1212 267.602C84.1213 267.602 84.1214 267.602 84.1215 267.602C84.3804 267.925 84.5467 268.38 84.5632 269.03L84.5631 269.03L84.5635 269.039C84.5636 269.043 84.5638 269.048 84.564 269.052L84.3957 269.058M84.0041 272.011C84.2529 271.686 84.3833 271.227 84.3957 270.635M84.0041 272.011C83.7558 272.336 83.3867 272.498 82.8963 272.498C82.4122 272.498 82.0464 272.336 81.7976 272.011C81.5498 271.686 81.419 271.227 81.4066 270.635L81.3965 269.842L81.4066 269.058C81.419 268.472 81.5493 268.016 81.7976 267.687C82.0464 267.359 82.4122 267.195 82.8963 267.195C83.38 267.195 83.7482 267.359 83.9994 267.687C84.2505 268.015 84.3833 268.472 84.3957 269.058M84.3957 270.635L84.5641 270.638C84.5698 270.48 84.573 270.223 84.573 269.861C84.573 269.855 84.573 269.848 84.573 269.842C84.5729 269.477 84.5697 269.216 84.5641 269.055L84.3957 269.058M84.3957 270.635C84.4019 270.45 84.4057 270.186 84.4057 269.842C84.4057 269.492 84.4019 269.231 84.3957 269.058" stroke="black" stroke-width="1.5"/>
<mask id="path-29-inside-7_96_4" fill="white">
<path d="M89.0604 274.954C89.0188 274.915 88.9978 274.861 88.9978 274.791V268.447C88.9978 268.377 89.0188 268.322 89.0604 268.284C89.1014 268.246 89.1539 268.227 89.2179 268.227H89.619C89.6887 268.227 89.7432 268.246 89.7814 268.284C89.8196 268.322 89.8387 268.376 89.8387 268.447V268.868C90.2073 268.377 90.733 268.132 91.4144 268.132C92.0829 268.132 92.5843 268.343 92.9185 268.767C93.2523 269.191 93.429 269.731 93.4481 270.387C93.4548 270.457 93.4581 270.565 93.4581 270.712C93.4581 270.858 93.4548 270.966 93.4481 271.037C93.429 271.686 93.2523 272.225 92.9185 272.652C92.5843 273.079 92.0829 273.292 91.4144 273.292C90.733 273.292 90.2173 273.05 89.8673 272.565V274.792C89.8673 274.855 89.8468 274.908 89.8053 274.949C89.7637 274.991 89.7112 275.011 89.6477 275.011H89.2184C89.1544 275.011 89.1014 274.992 89.0604 274.954ZM92.2357 272.116C92.4458 271.829 92.5609 271.454 92.5795 270.989C92.5862 270.925 92.5895 270.833 92.5895 270.712C92.5895 269.489 92.1373 268.877 91.2334 268.877C90.7875 268.877 90.4518 269.025 90.2259 269.321C90.0001 269.618 89.8802 269.967 89.8678 270.368C89.8611 270.437 89.8583 270.562 89.8583 270.74C89.8583 270.919 89.8611 271.043 89.8678 271.113C89.8802 271.501 90.0029 271.838 90.236 272.121C90.468 272.404 90.8008 272.546 91.2339 272.546C91.6914 272.546 92.0256 272.402 92.2357 272.116Z"/>
</mask>
<path d="M89.0604 274.954L90.0823 273.856L90.076 273.85L89.0604 274.954ZM89.0604 268.284L90.076 269.388L90.0823 269.382L89.0604 268.284ZM89.8387 268.868H88.3387V273.361L91.0379 269.769L89.8387 268.868ZM92.9185 268.767L94.0969 267.839L94.0963 267.838L92.9185 268.767ZM93.4481 270.387L91.9487 270.43L91.9502 270.48L91.9549 270.53L93.4481 270.387ZM93.4481 271.037L91.9547 270.896L91.9501 270.944L91.9487 270.993L93.4481 271.037ZM92.9185 272.652L94.0998 273.576L94.1004 273.575L92.9185 272.652ZM89.8673 272.565L91.0832 271.687L88.3673 267.928V272.565H89.8673ZM89.2184 275.011L89.2072 276.511H89.2184V275.011ZM92.2357 272.116L93.4448 273.004L93.4462 273.002L92.2357 272.116ZM92.5795 270.989L91.0877 270.832L91.0826 270.88L91.0807 270.929L92.5795 270.989ZM89.8678 270.368L91.361 270.511L91.3656 270.463L91.3671 270.414L89.8678 270.368ZM89.8678 271.113L91.367 271.065L91.3655 271.017L91.361 270.969L89.8678 271.113ZM90.236 272.121L91.3971 271.171L91.3936 271.167L90.236 272.121ZM91.2339 272.546V271.046V272.546ZM90.076 273.85C90.2283 273.99 90.3421 274.161 90.4128 274.344C90.481 274.521 90.4978 274.678 90.4978 274.791H87.4978C87.4978 275.178 87.6258 275.672 88.0448 276.058L90.076 273.85ZM90.4978 274.791V268.447H87.4978V274.791H90.4978ZM90.4978 268.447C90.4978 268.691 90.4129 269.078 90.076 269.388L88.0448 267.18C87.6248 267.567 87.4978 268.063 87.4978 268.447H90.4978ZM90.0823 269.382C89.8065 269.639 89.4758 269.727 89.2179 269.727V266.727C88.832 266.727 88.3964 266.853 88.0384 267.186L90.0823 269.382ZM89.2179 269.727H89.619V266.727H89.2179V269.727ZM89.619 269.727C89.4149 269.727 89.0406 269.665 88.7204 269.345L90.8423 267.224C90.4458 266.827 89.9626 266.727 89.619 266.727V269.727ZM88.7204 269.345C88.4013 269.025 88.3387 268.651 88.3387 268.447H91.3387C91.3387 268.101 91.2379 267.62 90.8423 267.224L88.7204 269.345ZM88.3387 268.447V268.868H91.3387V268.447H88.3387ZM91.0379 269.769C91.0885 269.701 91.1438 269.632 91.4144 269.632V266.632C90.3223 266.632 89.3261 267.053 88.6394 267.967L91.0379 269.769ZM91.4144 269.632C91.5928 269.632 91.6793 269.66 91.7082 269.672C91.728 269.681 91.7318 269.685 91.7408 269.696L94.0963 267.838C93.41 266.968 92.4208 266.632 91.4144 266.632V269.632ZM91.7402 269.695C91.8351 269.816 91.9369 270.025 91.9487 270.43L94.9474 270.343C94.921 269.436 94.6695 268.566 94.0969 267.839L91.7402 269.695ZM91.9549 270.53C91.954 270.52 91.9552 270.53 91.9563 270.567C91.9574 270.601 91.9581 270.649 91.9581 270.712H94.9581C94.9581 270.557 94.9551 270.389 94.9412 270.244L91.9549 270.53ZM91.9581 270.712C91.9581 270.774 91.9574 270.822 91.9563 270.857C91.9552 270.893 91.954 270.904 91.9547 270.896L94.9414 271.178C94.9551 271.034 94.9581 270.867 94.9581 270.712H91.9581ZM91.9487 270.993C91.9371 271.387 91.8371 271.6 91.7366 271.728L94.1004 273.575C94.6675 272.85 94.9208 271.985 94.9474 271.081L91.9487 270.993ZM91.7373 271.727C91.7273 271.74 91.7232 271.744 91.7046 271.752C91.6768 271.764 91.5916 271.792 91.4144 271.792V274.792C92.4245 274.792 93.4149 274.452 94.0998 273.576L91.7373 271.727ZM91.4144 271.792C91.2515 271.792 91.1773 271.763 91.1543 271.753C91.1381 271.745 91.1168 271.733 91.0832 271.687L88.6515 273.444C89.326 274.378 90.3291 274.792 91.4144 274.792V271.792ZM88.3673 272.565V274.792H91.3673V272.565H88.3673ZM88.3673 274.792C88.3673 274.66 88.389 274.5 88.4558 274.33C88.5236 274.158 88.6249 274.008 88.7443 273.889L90.8662 276.01C91.216 275.66 91.3673 275.213 91.3673 274.792H88.3673ZM88.7443 273.889C88.8638 273.769 89.0129 273.668 89.1856 273.6C89.3556 273.533 89.5159 273.511 89.6477 273.511V276.511C90.0693 276.511 90.5164 276.36 90.8662 276.01L88.7443 273.889ZM89.6477 273.511H89.2184V276.511H89.6477V273.511ZM89.2296 273.511C89.4761 273.513 89.8046 273.597 90.0823 273.856L88.0384 276.052C88.3983 276.387 88.8327 276.509 89.2072 276.511L89.2296 273.511ZM93.4462 273.002C93.878 272.412 94.0513 271.723 94.0783 271.049L91.0807 270.929C91.0705 271.184 91.0136 271.246 91.0252 271.23L93.4462 273.002ZM94.0713 271.146C94.0863 271.003 94.0895 270.848 94.0895 270.712H91.0895C91.0895 270.759 91.0889 270.794 91.088 270.818C91.0871 270.843 91.0863 270.845 91.0877 270.832L94.0713 271.146ZM94.0895 270.712C94.0895 269.959 93.9582 269.123 93.4566 268.444C92.8924 267.681 92.0597 267.377 91.2334 267.377V270.377C91.2916 270.377 91.2714 270.387 91.21 270.359C91.1401 270.328 91.0803 270.276 91.0443 270.227C91.0147 270.187 91.0281 270.186 91.0483 270.268C91.0689 270.351 91.0895 270.493 91.0895 270.712H94.0895ZM91.2334 267.377C90.4228 267.377 89.5999 267.669 89.0331 268.412L91.4187 270.231C91.4024 270.252 91.3785 270.278 91.3466 270.303C91.3146 270.329 91.2819 270.348 91.2524 270.361C91.1932 270.387 91.1751 270.377 91.2334 270.377V267.377ZM89.0331 268.412C88.6036 268.975 88.3899 269.632 88.3685 270.321L91.3671 270.414C91.3706 270.302 91.3966 270.26 91.4187 270.231L89.0331 268.412ZM88.3746 270.225C88.3601 270.377 88.3583 270.571 88.3583 270.74H91.3583C91.3583 270.658 91.3589 270.596 91.3601 270.551C91.3606 270.529 91.3612 270.514 91.3616 270.505C91.3621 270.495 91.3622 270.498 91.361 270.511L88.3746 270.225ZM88.3583 270.74C88.3583 270.91 88.3601 271.104 88.3746 271.256L91.361 270.969C91.3621 270.982 91.3621 270.985 91.3616 270.975C91.3612 270.967 91.3606 270.952 91.3601 270.93C91.3589 270.885 91.3583 270.823 91.3583 270.74H88.3583ZM88.3686 271.16C88.3909 271.858 88.6204 272.519 89.0783 273.074L91.3936 271.167C91.3829 271.154 91.3801 271.147 91.3782 271.142C91.376 271.136 91.3686 271.113 91.367 271.065L88.3686 271.16ZM89.0748 273.07C89.6456 273.768 90.4434 274.046 91.2339 274.046V271.046C91.1798 271.046 91.1945 271.037 91.2471 271.059C91.2732 271.071 91.3023 271.087 91.3312 271.108C91.3599 271.13 91.3819 271.152 91.3971 271.171L89.0748 273.07ZM91.2339 274.046C92.0172 274.046 92.873 273.783 93.4448 273.004L91.0266 271.229C91.052 271.194 91.0853 271.158 91.1257 271.127C91.166 271.095 91.2048 271.073 91.2365 271.06C91.2978 271.033 91.3101 271.046 91.2339 271.046L91.2339 274.046Z" fill="black" mask="url(#path-29-inside-7_96_4)"/>
<mask id="path-31-inside-8_96_4" fill="white">
<path d="M94.1552 273.139C94.117 273.1 94.0979 273.053 94.0979 272.995C94.0979 272.938 94.1203 272.877 94.1652 272.814L95.8264 270.654L94.2698 268.599C94.2192 268.53 94.1934 268.472 94.1934 268.427C94.1934 268.371 94.2139 268.322 94.2555 268.284C94.297 268.246 94.3433 268.227 94.3939 268.227H94.8523C94.9478 268.227 95.0304 268.278 95.1011 268.38L96.3904 270.052L97.6791 268.38C97.7173 268.329 97.7541 268.29 97.7889 268.265C97.8238 268.24 97.8701 268.227 97.9274 268.227H98.3667C98.4173 268.227 98.4622 268.246 98.5004 268.284C98.5386 268.322 98.5577 268.367 98.5577 268.418C98.5577 268.482 98.5353 268.542 98.4904 268.599L96.9146 270.673L98.5763 272.813C98.6207 272.877 98.6432 272.937 98.6432 272.995C98.6432 273.052 98.6241 273.1 98.5859 273.138C98.5477 273.176 98.4999 273.195 98.4426 273.195H97.9747C97.8792 273.195 97.7966 273.148 97.7264 273.052L96.3607 271.284L94.9956 273.052C94.9574 273.097 94.9206 273.132 94.8858 273.157C94.8509 273.183 94.8046 273.195 94.7473 273.195H94.2984C94.2416 273.196 94.1934 273.177 94.1552 273.139Z"/>
</mask>
<path d="M94.1652 272.814L92.9762 271.899L92.9576 271.923L92.9401 271.948L94.1652 272.814ZM95.8264 270.654L97.0154 271.568L97.7136 270.661L97.022 269.748L95.8264 270.654ZM94.2698 268.599L93.0557 269.48L93.0649 269.493L93.0742 269.505L94.2698 268.599ZM95.1011 268.38L93.8691 269.235L93.8904 269.266L93.9132 269.296L95.1011 268.38ZM96.3904 270.052L95.2024 270.968L96.3906 272.509L97.5784 270.968L96.3904 270.052ZM97.6791 268.38L98.8672 269.295L98.872 269.289L98.8766 269.283L97.6791 268.38ZM98.4904 268.599L97.3093 267.675L97.3026 267.683L97.2961 267.692L98.4904 268.599ZM96.9146 270.673L95.7204 269.765L95.0232 270.683L95.7298 271.593L96.9146 270.673ZM98.5763 272.813L99.8058 271.954L99.7843 271.923L99.7612 271.893L98.5763 272.813ZM97.7264 273.052L98.9353 272.164L98.9245 272.149L98.9134 272.135L97.7264 273.052ZM96.3607 271.284L97.5478 270.367L96.3605 268.831L95.1736 270.368L96.3607 271.284ZM94.9956 273.052L96.133 274.03L96.1587 274L96.1828 273.969L94.9956 273.052ZM94.8858 273.157L94.0042 271.944L93.9934 271.952L94.8858 273.157ZM94.2984 273.195L94.2984 271.695L94.2858 271.696L94.2984 273.195ZM95.2161 272.078C95.3333 272.195 95.4354 272.343 95.505 272.517C95.574 272.69 95.5979 272.855 95.5979 272.995H92.5979C92.5979 273.423 92.7565 273.861 93.0943 274.199L95.2161 272.078ZM95.5979 272.995C95.5979 273.34 95.4627 273.577 95.3904 273.679L92.9401 271.948C92.778 272.178 92.5979 272.536 92.5979 272.995H95.5979ZM95.3542 273.728L97.0154 271.568L94.6374 269.739L92.9762 271.899L95.3542 273.728ZM97.022 269.748L95.4653 267.694L93.0742 269.505L94.6309 271.56L97.022 269.748ZM95.4838 267.718C95.499 267.739 95.541 267.8 95.5832 267.894C95.6222 267.982 95.6934 268.17 95.6934 268.427H92.6934C92.6934 268.972 92.969 269.361 93.0557 269.48L95.4838 267.718ZM95.6934 268.427C95.6934 268.583 95.6645 268.761 95.5862 268.943C95.5075 269.125 95.3947 269.274 95.2711 269.388L93.2399 267.18C92.8794 267.512 92.6934 267.965 92.6934 268.427H95.6934ZM95.2711 269.388C95.0686 269.574 94.762 269.727 94.3939 269.727V266.727C93.9247 266.727 93.5254 266.918 93.2399 267.18L95.2711 269.388ZM94.3939 269.727H94.8523V266.727H94.3939V269.727ZM94.8523 269.727C94.616 269.727 94.3892 269.659 94.1997 269.542C94.0231 269.434 93.9198 269.308 93.8691 269.235L96.3332 267.524C96.0781 267.157 95.5865 266.727 94.8523 266.727V269.727ZM93.9132 269.296L95.2024 270.968L97.5783 269.136L96.289 267.464L93.9132 269.296ZM97.5784 270.968L98.8672 269.295L96.491 267.464L95.2023 269.136L97.5784 270.968ZM98.8766 269.283C98.868 269.294 98.8492 269.318 98.8196 269.349C98.7909 269.379 98.7417 269.427 98.6705 269.479L96.9074 267.051C96.7062 267.198 96.5666 267.364 96.4816 267.476L98.8766 269.283ZM98.6705 269.479C98.3791 269.69 98.0877 269.727 97.9274 269.727V266.727C97.6525 266.727 97.2685 266.789 96.9074 267.051L98.6705 269.479ZM97.9274 269.727H98.3667V266.727H97.9274V269.727ZM98.3667 269.727C98.1984 269.727 98.0205 269.694 97.848 269.62C97.677 269.547 97.5413 269.446 97.4395 269.345L99.5614 267.224C99.2598 266.922 98.84 266.727 98.3667 266.727V269.727ZM97.4395 269.345C97.3375 269.243 97.2372 269.107 97.1641 268.936C97.0904 268.764 97.0577 268.586 97.0577 268.418H100.058C100.058 267.945 99.863 267.526 99.5614 267.224L97.4395 269.345ZM97.0577 268.418C97.0577 268.099 97.1794 267.841 97.3093 267.675L99.6715 269.524C99.8912 269.243 100.058 268.865 100.058 268.418H97.0577ZM97.2961 267.692L95.7204 269.765L98.1089 271.58L99.6846 269.507L97.2961 267.692ZM95.7298 271.593L97.3915 273.733L99.7612 271.893L98.0995 269.753L95.7298 271.593ZM97.3468 273.672C97.2774 273.573 97.1432 273.338 97.1432 272.995H100.143C100.143 272.537 99.9641 272.18 99.8058 271.954L97.3468 273.672ZM97.1432 272.995C97.1432 272.854 97.1671 272.689 97.236 272.517C97.3057 272.343 97.4078 272.195 97.5249 272.078L99.6468 274.198C99.9846 273.861 100.143 273.423 100.143 272.995H97.1432ZM97.5249 272.078C97.6419 271.961 97.7895 271.858 97.9637 271.789C98.1362 271.72 98.3019 271.695 98.4426 271.695V274.695C98.8718 274.695 99.3094 274.536 99.6468 274.198L97.5249 272.078ZM98.4426 271.695H97.9747V274.695H98.4426V271.695ZM97.9747 271.695C98.1907 271.695 98.4049 271.753 98.5914 271.861C98.7677 271.963 98.8766 272.084 98.9353 272.164L96.5175 273.94C96.7931 274.315 97.2848 274.695 97.9747 274.695V271.695ZM98.9134 272.135L97.5478 270.367L95.1737 272.201L96.5394 273.969L98.9134 272.135ZM95.1736 270.368L93.8084 272.135L96.1828 273.969L97.5479 272.201L95.1736 270.368ZM93.8582 272.074C93.8653 272.066 93.8796 272.05 93.9015 272.029C93.9229 272.008 93.957 271.978 94.0042 271.944L95.7673 274.371C95.9258 274.256 96.0471 274.13 96.133 274.03L93.8582 272.074ZM93.9934 271.952C94.2965 271.727 94.599 271.695 94.7473 271.695V274.695C95.0102 274.695 95.4054 274.639 95.7781 274.363L93.9934 271.952ZM94.7473 271.695H94.2984V274.695H94.7473V271.695ZM94.2858 271.696C94.4316 271.694 94.5998 271.719 94.7731 271.787C94.9479 271.857 95.0972 271.959 95.2161 272.078L93.0943 274.199C93.4333 274.538 93.8757 274.699 94.3111 274.695L94.2858 271.696Z" fill="black" mask="url(#path-31-inside-8_96_4)"/>
<path d="M119.33 3.76392L116.595 1.02783L113.861 3.76392" stroke="black" stroke-width="1.5" stroke-miterlimit="10" stroke-linecap="round" stroke-linejoin="round"/>
<path d="M116.595 1.02783V212.276" stroke="black" stroke-width="1.5" stroke-miterlimit="10" stroke-linecap="round" stroke-linejoin="round"/>
<path d="M116.595 226.465V288.661" stroke="black" stroke-width="1.5" stroke-miterlimit="10" stroke-linecap="round" stroke-linejoin="round"/>
<path d="M119.325 285.919L116.59 288.655L113.856 285.919" stroke="black" stroke-width="1.5" stroke-miterlimit="10" stroke-linecap="round" stroke-linejoin="round"/>
<path d="M97.7378 221.732L97.7132 221.783L97.7133 221.783L97.7378 221.732Z" stroke="black" stroke-width="1.5"/>
<mask id="path-38-inside-9_96_4" fill="white">
<path d="M102.809 221.995C102.43 221.514 102.228 220.885 102.202 220.108L102.192 219.285L102.202 218.435C102.222 217.665 102.423 217.038 102.809 216.557C103.194 216.077 103.794 215.836 104.609 215.836C105.431 215.836 106.033 216.077 106.419 216.557C106.805 217.038 107.006 217.664 107.026 218.435C107.032 218.614 107.036 218.897 107.036 219.285C107.036 219.661 107.032 219.935 107.026 220.108C107 220.885 106.798 221.514 106.419 221.995C106.04 222.476 105.436 222.716 104.609 222.716C103.788 222.716 103.187 222.476 102.809 221.995ZM105.717 221.435C105.966 221.11 106.096 220.652 106.108 220.059C106.115 219.875 106.118 219.611 106.118 219.267C106.118 218.916 106.115 218.655 106.108 218.483C106.096 217.897 105.963 217.44 105.712 217.112C105.461 216.783 105.093 216.62 104.609 216.62C104.125 216.62 103.759 216.784 103.51 217.112C103.262 217.44 103.132 217.897 103.119 218.483L103.109 219.267L103.119 220.059C103.132 220.652 103.262 221.11 103.51 221.435C103.759 221.761 104.125 221.923 104.609 221.923C105.099 221.923 105.469 221.761 105.717 221.435Z"/>
</mask>
<path d="M102.202 220.108L100.703 220.126L100.703 220.141L100.703 220.156L102.202 220.108ZM102.192 219.285L100.692 219.268L100.692 219.286L100.692 219.304L102.192 219.285ZM102.202 218.435L100.703 218.398L100.703 218.408L100.703 218.418L102.202 218.435ZM102.809 216.557L101.639 215.619L101.638 215.62L102.809 216.557ZM106.419 216.557L107.59 215.62L107.589 215.618L106.419 216.557ZM107.026 218.435L105.526 218.473L105.526 218.483L105.527 218.492L107.026 218.435ZM107.026 220.108L105.527 220.049L105.526 220.058L107.026 220.108ZM106.419 221.995L107.597 222.923L107.598 222.922L106.419 221.995ZM105.717 221.435L104.526 220.523L104.524 220.526L105.717 221.435ZM106.108 220.059L104.609 220.009L104.609 220.018L104.609 220.028L106.108 220.059ZM106.108 218.483L104.609 218.514L104.609 218.526L104.609 218.537L106.108 218.483ZM103.51 217.112L102.315 216.205L102.313 216.207L103.51 217.112ZM103.119 218.483L101.619 218.451L101.619 218.464L103.119 218.483ZM103.109 219.267L101.609 219.248L101.609 219.267L101.609 219.286L103.109 219.267ZM103.119 220.059L101.619 220.078L101.62 220.091L103.119 220.059ZM103.51 221.435L102.318 222.345L102.319 222.346L103.51 221.435ZM104.609 221.923L104.609 223.423L104.61 223.423L104.609 221.923ZM103.988 221.067C103.854 220.897 103.719 220.602 103.702 220.059L100.703 220.156C100.736 221.167 101.006 222.13 101.63 222.922L103.988 221.067ZM103.702 220.089L103.692 219.267L100.692 219.304L100.703 220.126L103.702 220.089ZM103.692 219.303L103.702 218.453L100.703 218.418L100.692 219.268L103.692 219.303ZM103.702 218.473C103.715 217.946 103.846 217.661 103.98 217.495L101.638 215.62C101 216.416 100.728 217.384 100.703 218.398L103.702 218.473ZM103.979 217.496C103.994 217.477 104.092 217.336 104.609 217.336V214.336C103.496 214.336 102.394 214.677 101.639 215.619L103.979 217.496ZM104.609 217.336C105.137 217.336 105.236 217.479 105.249 217.496L107.589 215.618C106.831 214.674 105.725 214.336 104.609 214.336V217.336ZM105.248 217.495C105.381 217.661 105.513 217.945 105.526 218.473L108.525 218.397C108.499 217.384 108.228 216.416 107.59 215.62L105.248 217.495ZM105.527 218.492C105.532 218.64 105.536 218.9 105.536 219.285H108.536C108.536 218.895 108.532 218.587 108.525 218.379L105.527 218.492ZM105.536 219.285C105.536 219.659 105.532 219.908 105.527 220.049L108.524 220.166C108.532 219.962 108.536 219.664 108.536 219.285H105.536ZM105.526 220.058C105.508 220.603 105.374 220.898 105.24 221.067L107.598 222.922C108.222 222.129 108.491 221.167 108.525 220.157L105.526 220.058ZM105.241 221.066C105.239 221.069 105.15 221.216 104.609 221.216V224.216C105.723 224.216 106.842 223.882 107.597 222.923L105.241 221.066ZM104.609 221.216C104.078 221.216 103.991 221.072 103.988 221.067L101.63 222.922C102.384 223.88 103.497 224.216 104.609 224.216V221.216ZM106.908 222.347C107.42 221.678 107.592 220.864 107.608 220.091L104.609 220.028C104.6 220.439 104.511 220.543 104.526 220.523L106.908 222.347ZM107.607 220.11C107.614 219.902 107.618 219.619 107.618 219.267H104.618C104.618 219.602 104.615 219.848 104.609 220.009L107.607 220.11ZM107.618 219.267C107.618 218.909 107.615 218.627 107.607 218.429L104.609 218.537C104.615 218.683 104.618 218.924 104.618 219.267H107.618ZM107.608 218.451C107.592 217.673 107.413 216.866 106.903 216.2L104.521 218.023C104.513 218.013 104.6 218.12 104.609 218.514L107.608 218.451ZM106.903 216.2C106.316 215.433 105.467 215.12 104.609 215.12V218.12C104.683 218.12 104.681 218.132 104.638 218.113C104.616 218.104 104.592 218.089 104.569 218.071C104.545 218.052 104.53 218.035 104.521 218.023L106.903 216.2ZM104.609 215.12C103.748 215.12 102.9 215.435 102.315 216.205L104.705 218.018C104.696 218.03 104.68 218.049 104.656 218.068C104.631 218.087 104.606 218.102 104.584 218.112C104.539 218.132 104.535 218.12 104.609 218.12V215.12ZM102.313 216.207C101.81 216.874 101.636 217.678 101.62 218.451L104.619 218.514C104.627 218.116 104.714 218.007 104.707 218.016L102.313 216.207ZM101.619 218.464L101.609 219.248L104.609 219.286L104.619 218.502L101.619 218.464ZM101.609 219.286L101.619 220.078L104.619 220.04L104.609 219.248L101.609 219.286ZM101.62 220.091C101.636 220.865 101.808 221.677 102.318 222.345L104.703 220.525C104.717 220.543 104.627 220.438 104.619 220.028L101.62 220.091ZM102.319 222.346C102.905 223.113 103.753 223.423 104.609 223.423V220.423C104.534 220.423 104.536 220.41 104.58 220.43C104.602 220.44 104.627 220.454 104.651 220.474C104.676 220.493 104.692 220.511 104.702 220.524L102.319 222.346ZM104.61 223.423C105.461 223.422 106.319 223.119 106.91 222.344L104.524 220.526C104.535 220.511 104.553 220.492 104.578 220.471C104.604 220.451 104.629 220.437 104.65 220.428C104.692 220.409 104.69 220.423 104.608 220.423L104.61 223.423Z" fill="black" mask="url(#path-38-inside-9_96_4)"/>
<mask id="path-40-inside-10_96_4" fill="white">
<path d="M111.318 222.558C111.277 222.517 111.256 222.464 111.256 222.4V221.005H108.153C108.089 221.005 108.036 220.985 107.995 220.943C107.953 220.902 107.933 220.849 107.933 220.786V220.432C107.933 220.343 107.968 220.247 108.038 220.145L110.913 216.094C110.944 216.043 110.992 216.004 111.056 215.975C111.12 215.946 111.19 215.932 111.266 215.932H111.915C111.985 215.932 112.039 215.951 112.078 215.989C112.116 216.027 112.135 216.081 112.135 216.151V220.203H113.004C113.067 220.203 113.12 220.223 113.161 220.265C113.203 220.306 113.224 220.359 113.224 220.423V220.786C113.224 220.849 113.203 220.902 113.161 220.943C113.12 220.985 113.067 221.005 113.004 221.005H112.135V222.4C112.135 222.464 112.114 222.517 112.073 222.558C112.031 222.6 111.979 222.62 111.915 222.62H111.476C111.412 222.62 111.36 222.6 111.318 222.558ZM108.926 220.222H111.265V216.897L108.926 220.222Z"/>
</mask>
<path d="M111.256 221.005H112.756V219.505H111.256V221.005ZM108.038 220.145L106.815 219.277L106.809 219.285L106.803 219.294L108.038 220.145ZM110.913 216.094L112.136 216.962L112.162 216.925L112.186 216.887L110.913 216.094ZM111.056 215.975L110.439 214.607L110.434 214.61L111.056 215.975ZM112.135 220.203H110.635V221.703H112.135V220.203ZM113.161 220.265L114.229 219.211L114.222 219.204L113.161 220.265ZM113.161 220.943L114.222 222.004L114.228 221.997L113.161 220.943ZM112.135 221.005V219.505H110.635V221.005H112.135ZM108.926 220.222L107.699 219.359L106.037 221.722H108.926V220.222ZM111.265 220.222V221.722H112.765V220.222H111.265ZM111.265 216.897H112.765V212.157L110.038 216.034L111.265 216.897ZM112.379 221.498C112.497 221.615 112.599 221.764 112.667 221.938C112.735 222.109 112.756 222.27 112.756 222.4H109.756C109.756 222.824 109.909 223.27 110.257 223.618L112.379 221.498ZM112.756 222.4V221.005H109.756V222.4H112.756ZM111.256 219.505H108.153V222.505H111.256V219.505ZM108.153 219.505C108.283 219.505 108.444 219.527 108.616 219.594C108.79 219.663 108.938 219.765 109.056 219.883L106.934 222.004C107.283 222.352 107.729 222.505 108.153 222.505V219.505ZM109.056 219.883C109.175 220.002 109.277 220.152 109.344 220.324C109.411 220.494 109.433 220.654 109.433 220.786H106.433C106.433 221.207 106.584 221.654 106.934 222.004L109.056 219.883ZM109.433 220.786V220.432H106.433V220.786H109.433ZM109.433 220.432C109.433 220.742 109.312 220.94 109.273 220.997L106.803 219.294C106.623 219.555 106.433 219.944 106.433 220.432H109.433ZM109.261 221.014L112.136 216.962L109.69 215.226L106.815 219.277L109.261 221.014ZM112.186 216.887C112.034 217.131 111.831 217.27 111.678 217.34L110.434 214.61C110.154 214.738 109.855 214.956 109.639 215.302L112.186 216.887ZM111.673 217.342C111.525 217.409 111.382 217.432 111.266 217.432V214.432C110.998 214.432 110.714 214.483 110.439 214.607L111.673 217.342ZM111.266 217.432H111.915V214.432H111.266V217.432ZM111.915 217.432C111.711 217.432 111.337 217.37 111.017 217.049L113.138 214.929C112.742 214.532 112.259 214.432 111.915 214.432V217.432ZM111.017 217.049C110.697 216.73 110.635 216.356 110.635 216.151H113.635C113.635 215.806 113.534 215.324 113.138 214.929L111.017 217.049ZM110.635 216.151V220.203H113.635V216.151H110.635ZM112.135 221.703H113.004V218.703H112.135V221.703ZM113.004 221.703C112.872 221.703 112.712 221.681 112.542 221.614C112.369 221.546 112.22 221.445 112.1 221.325L114.222 219.204C113.873 218.854 113.426 218.703 113.004 218.703V221.703ZM112.094 221.319C111.981 221.204 111.881 221.059 111.813 220.888C111.746 220.718 111.724 220.557 111.724 220.423H114.724C114.724 219.991 114.566 219.552 114.228 219.211L112.094 221.319ZM111.724 220.423V220.786H114.724V220.423H111.724ZM111.724 220.786C111.724 220.65 111.746 220.489 111.813 220.321C111.88 220.152 111.979 220.006 112.094 219.889L114.228 221.997C114.567 221.655 114.724 221.215 114.724 220.786H111.724ZM112.1 219.883C112.22 219.763 112.369 219.662 112.542 219.594C112.712 219.527 112.872 219.505 113.004 219.505V222.505C113.426 222.505 113.873 222.354 114.222 222.004L112.1 219.883ZM113.004 219.505H112.135V222.505H113.004V219.505ZM110.635 221.005V222.4H113.635V221.005H110.635ZM110.635 222.4C110.635 222.27 110.656 222.109 110.724 221.938C110.792 221.764 110.894 221.615 111.012 221.498L113.134 223.618C113.482 223.27 113.635 222.824 113.635 222.4H110.635ZM111.012 221.498C111.131 221.378 111.28 221.277 111.453 221.209C111.623 221.142 111.783 221.12 111.915 221.12V224.12C112.337 224.12 112.784 223.968 113.134 223.618L111.012 221.498ZM111.915 221.12H111.476V224.12H111.915V221.12ZM111.476 221.12C111.606 221.12 111.767 221.142 111.939 221.209C112.113 221.278 112.262 221.38 112.379 221.498L110.257 223.618C110.606 223.967 111.052 224.12 111.476 224.12V221.12ZM108.926 221.722H111.265V218.722H108.926V221.722ZM112.765 220.222V216.897H109.765V220.222H112.765ZM110.038 216.034L107.699 219.359L110.153 221.085L112.492 217.76L110.038 216.034Z" fill="black" mask="url(#path-40-inside-10_96_4)"/>
<mask id="path-42-inside-11_96_4" fill="white">
<path d="M114.756 221.995C114.377 221.514 114.175 220.885 114.149 220.108L114.139 219.285L114.149 218.435C114.169 217.665 114.371 217.038 114.756 216.557C115.141 216.077 115.741 215.836 116.556 215.836C117.378 215.836 117.98 216.077 118.366 216.557C118.752 217.038 118.953 217.664 118.973 218.435C118.979 218.614 118.983 218.897 118.983 219.285C118.983 219.661 118.979 219.935 118.973 220.108C118.947 220.885 118.745 221.514 118.366 221.995C117.987 222.476 117.384 222.716 116.556 222.716C115.735 222.716 115.135 222.476 114.756 221.995ZM117.664 221.435C117.913 221.11 118.043 220.652 118.055 220.059C118.062 219.875 118.065 219.611 118.065 219.267C118.065 218.916 118.062 218.655 118.055 218.483C118.043 217.897 117.91 217.44 117.659 217.112C117.408 216.783 117.04 216.62 116.556 216.62C116.072 216.62 115.706 216.784 115.457 217.112C115.209 217.44 115.079 217.897 115.066 218.483L115.056 219.267L115.066 220.059C115.079 220.652 115.209 221.11 115.457 221.435C115.706 221.761 116.072 221.923 116.556 221.923C117.046 221.923 117.416 221.761 117.664 221.435Z"/>
</mask>
<path d="M114.149 220.108L112.65 220.126L112.65 220.141L112.65 220.156L114.149 220.108ZM114.139 219.285L112.64 219.268L112.639 219.286L112.64 219.304L114.139 219.285ZM114.149 218.435L112.65 218.398L112.65 218.408L112.65 218.418L114.149 218.435ZM114.756 216.557L113.586 215.619L113.585 215.62L114.756 216.557ZM118.366 216.557L119.537 215.62L119.536 215.618L118.366 216.557ZM118.973 218.435L117.473 218.473L117.473 218.483L117.474 218.492L118.973 218.435ZM118.973 220.108L117.474 220.049L117.473 220.058L118.973 220.108ZM118.366 221.995L119.544 222.923L119.545 222.922L118.366 221.995ZM117.664 221.435L116.473 220.523L116.471 220.525L117.664 221.435ZM118.055 220.059L116.556 220.009L116.556 220.018L116.556 220.028L118.055 220.059ZM118.055 218.483L116.556 218.514L116.556 218.526L116.556 218.537L118.055 218.483ZM115.457 217.112L114.263 216.205L114.26 216.207L115.457 217.112ZM115.066 218.483L113.567 218.451L113.566 218.464L115.066 218.483ZM115.056 219.267L113.556 219.248L113.556 219.267L113.556 219.286L115.056 219.267ZM115.066 220.059L113.566 220.078L113.567 220.091L115.066 220.059ZM115.457 221.435L114.265 222.345L114.266 222.346L115.457 221.435ZM116.556 221.923L116.556 223.423L116.557 223.423L116.556 221.923ZM115.935 221.067C115.801 220.897 115.666 220.602 115.649 220.059L112.65 220.156C112.683 221.167 112.953 222.13 113.577 222.922L115.935 221.067ZM115.649 220.089L115.639 219.267L112.64 219.304L112.65 220.126L115.649 220.089ZM115.639 219.303L115.649 218.453L112.65 218.418L112.64 219.268L115.639 219.303ZM115.649 218.473C115.662 217.946 115.794 217.661 115.927 217.495L113.585 215.62C112.948 216.416 112.675 217.384 112.65 218.398L115.649 218.473ZM115.926 217.496C115.941 217.477 116.039 217.336 116.556 217.336V214.336C115.443 214.336 114.341 214.677 113.586 215.619L115.926 217.496ZM116.556 217.336C117.084 217.336 117.183 217.479 117.196 217.496L119.536 215.618C118.778 214.674 117.672 214.336 116.556 214.336V217.336ZM117.195 217.495C117.328 217.661 117.46 217.945 117.473 218.473L120.472 218.397C120.446 217.384 120.175 216.416 119.537 215.62L117.195 217.495ZM117.474 218.492C117.479 218.64 117.483 218.9 117.483 219.285H120.483C120.483 218.895 120.479 218.587 120.472 218.379L117.474 218.492ZM117.483 219.285C117.483 219.659 117.479 219.908 117.474 220.049L120.472 220.166C120.479 219.962 120.483 219.664 120.483 219.285H117.483ZM117.473 220.058C117.455 220.603 117.321 220.898 117.187 221.067L119.545 222.922C120.169 222.129 120.438 221.167 120.472 220.157L117.473 220.058ZM117.188 221.066C117.186 221.069 117.097 221.216 116.556 221.216V224.216C117.67 224.216 118.789 223.882 119.544 222.923L117.188 221.066ZM116.556 221.216C116.025 221.216 115.938 221.072 115.935 221.067L113.577 222.922C114.331 223.88 115.444 224.216 116.556 224.216V221.216ZM118.855 222.347C119.367 221.678 119.539 220.864 119.555 220.091L116.556 220.028C116.547 220.439 116.458 220.543 116.473 220.523L118.855 222.347ZM119.555 220.11C119.562 219.902 119.565 219.619 119.565 219.267H116.565C116.565 219.602 116.562 219.848 116.556 220.009L119.555 220.11ZM119.565 219.267C119.565 218.909 119.562 218.627 119.554 218.429L116.556 218.537C116.562 218.683 116.565 218.924 116.565 219.267H119.565ZM119.555 218.451C119.539 217.673 119.36 216.866 118.85 216.2L116.468 218.023C116.46 218.014 116.547 218.12 116.556 218.514L119.555 218.451ZM118.85 216.2C118.263 215.433 117.414 215.12 116.556 215.12V218.12C116.63 218.12 116.628 218.132 116.585 218.113C116.563 218.104 116.539 218.089 116.516 218.071C116.492 218.052 116.477 218.035 116.468 218.023L118.85 216.2ZM116.556 215.12C115.695 215.12 114.847 215.435 114.263 216.205L116.652 218.018C116.643 218.03 116.627 218.049 116.603 218.068C116.578 218.087 116.553 218.102 116.531 218.112C116.486 218.132 116.482 218.12 116.556 218.12V215.12ZM114.26 216.207C113.757 216.874 113.583 217.678 113.567 218.451L116.566 218.514C116.574 218.116 116.661 218.007 116.654 218.016L114.26 216.207ZM113.566 218.464L113.556 219.248L116.556 219.286L116.566 218.502L113.566 218.464ZM113.556 219.286L113.566 220.078L116.566 220.04L116.556 219.248L113.556 219.286ZM113.567 220.091C113.583 220.865 113.755 221.677 114.265 222.345L116.65 220.525C116.664 220.543 116.574 220.438 116.566 220.028L113.567 220.091ZM114.266 222.346C114.852 223.113 115.7 223.423 116.556 223.423V220.423C116.481 220.423 116.483 220.41 116.527 220.43C116.549 220.44 116.574 220.454 116.598 220.474C116.623 220.493 116.639 220.511 116.649 220.524L114.266 222.346ZM116.557 223.423C117.409 223.422 118.266 223.119 118.856 222.345L116.471 220.525C116.482 220.511 116.5 220.491 116.525 220.471C116.551 220.451 116.576 220.437 116.597 220.428C116.639 220.409 116.637 220.423 116.555 220.423L116.557 223.423Z" fill="black" mask="url(#path-42-inside-11_96_4)"/>
<path d="M122.878 217.651H123.056L122.721 217.709C122.762 217.671 122.814 217.651 122.878 217.651Z" stroke="black" stroke-width="1.5"/>
<mask id="path-45-inside-12_96_4" fill="white">
<path d="M127.815 222.563C127.777 222.524 127.758 222.477 127.758 222.419C127.758 222.362 127.781 222.301 127.825 222.238L129.487 220.078L127.93 218.024C127.879 217.954 127.854 217.896 127.854 217.852C127.854 217.795 127.874 217.746 127.916 217.708C127.957 217.67 128.003 217.651 128.054 217.651H128.513C128.608 217.651 128.691 217.702 128.761 217.804L130.051 219.476L131.339 217.804C131.377 217.753 131.414 217.714 131.449 217.689C131.484 217.664 131.53 217.651 131.588 217.651H132.027C132.077 217.651 132.122 217.67 132.161 217.708C132.199 217.746 132.218 217.791 132.218 217.842C132.218 217.906 132.195 217.966 132.151 218.024L130.575 220.097L132.237 222.237C132.281 222.301 132.303 222.362 132.303 222.419C132.303 222.476 132.284 222.524 132.246 222.562C132.208 222.6 132.16 222.62 132.103 222.62H131.635C131.539 222.62 131.457 222.572 131.387 222.476L130.021 220.709L128.656 222.476C128.618 222.521 128.581 222.556 128.546 222.581C128.511 222.607 128.465 222.62 128.407 222.62H127.959C127.901 222.62 127.854 222.601 127.815 222.563Z"/>
</mask>
<path d="M127.825 222.238L126.636 221.323L126.618 221.347L126.6 221.372L127.825 222.238ZM129.487 220.078L130.676 220.992L131.374 220.085L130.682 219.172L129.487 220.078ZM127.93 218.024L126.716 218.904L126.725 218.917L126.734 218.929L127.93 218.024ZM128.761 217.804L127.529 218.659L127.551 218.69L127.573 218.72L128.761 217.804ZM130.051 219.476L128.863 220.392L130.051 221.933L131.239 220.392L130.051 219.476ZM131.339 217.804L132.527 218.719L132.532 218.713L132.537 218.707L131.339 217.804ZM132.151 218.024L130.969 217.099L130.963 217.107L130.956 217.116L132.151 218.024ZM130.575 220.097L129.381 219.189L128.683 220.107L129.39 221.017L130.575 220.097ZM132.237 222.237L133.466 221.378L133.444 221.347L133.421 221.317L132.237 222.237ZM131.387 222.476L132.595 221.588L132.585 221.573L132.574 221.559L131.387 222.476ZM130.021 220.709L131.208 219.791L130.021 218.255L128.834 219.792L130.021 220.709ZM128.656 222.476L129.793 223.454L129.819 223.424L129.843 223.393L128.656 222.476ZM128.546 222.581L127.664 221.368L127.654 221.376L128.546 222.581ZM127.959 222.62V221.119L127.946 221.12L127.959 222.62ZM128.876 221.502C128.993 221.619 129.096 221.767 129.165 221.941C129.234 222.114 129.258 222.279 129.258 222.419H126.258C126.258 222.847 126.417 223.285 126.754 223.623L128.876 221.502ZM129.258 222.419C129.258 222.764 129.123 223.001 129.051 223.103L126.6 221.372C126.438 221.602 126.258 221.96 126.258 222.419H129.258ZM129.014 223.152L130.676 220.992L128.298 219.163L126.636 221.323L129.014 223.152ZM130.682 219.172L129.126 217.118L126.734 218.929L128.291 220.984L130.682 219.172ZM129.144 217.143C129.159 217.163 129.201 217.224 129.243 217.319C129.282 217.406 129.354 217.594 129.354 217.852H126.354C126.354 218.397 126.629 218.785 126.716 218.904L129.144 217.143ZM129.354 217.852C129.354 218.007 129.325 218.185 129.246 218.367C129.168 218.549 129.055 218.698 128.931 218.812L126.9 216.604C126.54 216.936 126.354 217.389 126.354 217.852H129.354ZM128.931 218.812C128.729 218.998 128.422 219.151 128.054 219.151V216.151C127.585 216.151 127.185 216.342 126.9 216.604L128.931 218.812ZM128.054 219.151H128.513V216.151H128.054V219.151ZM128.513 219.151C128.276 219.151 128.049 219.083 127.86 218.967C127.683 218.858 127.58 218.732 127.529 218.659L129.993 216.948C129.738 216.581 129.247 216.151 128.513 216.151V219.151ZM127.573 218.72L128.863 220.392L131.238 218.56L129.949 216.888L127.573 218.72ZM131.239 220.392L132.527 218.719L130.151 216.888L128.862 218.56L131.239 220.392ZM132.537 218.707C132.528 218.719 132.509 218.743 132.48 218.773C132.451 218.803 132.402 218.851 132.331 218.903L130.568 216.476C130.367 216.622 130.227 216.788 130.142 216.9L132.537 218.707ZM132.331 218.903C132.039 219.114 131.748 219.151 131.588 219.151V216.151C131.313 216.151 130.929 216.213 130.568 216.476L132.331 218.903ZM131.588 219.151H132.027V216.151H131.588V219.151ZM132.027 219.151C131.859 219.151 131.681 219.118 131.508 219.044C131.337 218.971 131.202 218.871 131.1 218.769L133.222 216.648C132.92 216.346 132.5 216.151 132.027 216.151V219.151ZM131.1 218.769C130.998 218.667 130.897 218.531 130.824 218.36C130.751 218.188 130.718 218.01 130.718 217.842H133.718C133.718 217.369 133.523 216.95 133.222 216.648L131.1 218.769ZM130.718 217.842C130.718 217.523 130.839 217.265 130.969 217.099L133.332 218.948C133.551 218.667 133.718 218.289 133.718 217.842H130.718ZM130.956 217.116L129.381 219.189L131.769 221.005L133.345 218.931L130.956 217.116ZM129.39 221.017L131.052 223.157L133.421 221.317L131.76 219.177L129.39 221.017ZM131.007 223.097C130.938 222.997 130.803 222.762 130.803 222.419H133.803C133.803 221.961 133.624 221.604 133.466 221.378L131.007 223.097ZM130.803 222.419C130.803 222.279 130.827 222.113 130.896 221.941C130.966 221.767 131.068 221.619 131.185 221.502L133.307 223.623C133.645 223.285 133.803 222.847 133.803 222.419H130.803ZM131.185 221.502C131.302 221.385 131.45 221.282 131.624 221.213C131.796 221.144 131.962 221.12 132.103 221.12V224.12C132.532 224.12 132.969 223.96 133.307 223.623L131.185 221.502ZM132.103 221.12H131.635V224.12H132.103V221.12ZM131.635 221.12C131.851 221.12 132.065 221.177 132.251 221.285C132.428 221.387 132.537 221.508 132.595 221.588L130.178 223.364C130.453 223.739 130.945 224.12 131.635 224.12V221.12ZM132.574 221.559L131.208 219.791L128.834 221.626L130.2 223.393L132.574 221.559ZM128.834 219.792L127.469 221.559L129.843 223.393L131.208 221.625L128.834 219.792ZM127.518 221.498C127.526 221.49 127.54 221.474 127.562 221.453C127.583 221.432 127.617 221.402 127.664 221.368L129.428 223.795C129.586 223.68 129.707 223.554 129.793 223.454L127.518 221.498ZM127.654 221.376C127.957 221.151 128.259 221.12 128.407 221.12V224.12C128.67 224.12 129.066 224.063 129.438 223.787L127.654 221.376ZM128.407 221.12H127.959V224.12H128.407V221.12ZM127.946 221.12C128.09 221.118 128.259 221.142 128.434 221.212C128.611 221.282 128.759 221.385 128.876 221.502L126.754 223.623C127.092 223.961 127.534 224.123 127.971 224.119L127.946 221.12Z" fill="black" mask="url(#path-45-inside-12_96_4)"/>
</svg>
