<svg width="210" height="507" viewBox="0 0 210 507" fill="none" xmlns="http://www.w3.org/2000/svg">
<g clip-path="url(#clip0_96_630)">
<mask id="path-1-inside-1_96_630" fill="white">
<path fill-rule="evenodd" clip-rule="evenodd" d="M173.711 462.816V353.205H172.569V462.816C172.569 468.935 167.713 473.894 161.723 473.894H0.741943V475.06H161.723C164.443 475.06 166.951 474.135 168.963 472.576L194.21 492.573C193.002 494.39 192.459 496.67 192.862 499.003C193.683 503.76 198.124 506.936 202.782 506.097C207.439 505.259 210.549 500.723 209.727 495.966C208.906 491.209 204.465 488.033 199.808 488.872C197.84 489.226 196.148 490.241 194.912 491.654L169.858 471.81C172.227 469.573 173.711 466.372 173.711 462.816ZM202.583 504.949C206.62 504.222 209.315 500.291 208.603 496.168C207.891 492.046 204.042 489.293 200.006 490.02C195.97 490.747 193.275 494.678 193.986 498.801C194.698 502.923 198.547 505.676 202.583 504.949Z"/>
</mask>
<path d="M173.711 353.205H176.711V350.205H173.711V353.205ZM172.569 353.205V350.205H169.569V353.205H172.569ZM0.741943 473.894V470.894H-2.25806V473.894H0.741943ZM0.741943 475.06H-2.25806V478.06H0.741943V475.06ZM168.963 472.576L170.825 470.225L168.983 468.765L167.125 470.205L168.963 472.576ZM194.21 492.573L196.708 494.234L198.236 491.935L196.072 490.221L194.21 492.573ZM192.862 499.003L189.906 499.514L189.906 499.514L192.862 499.003ZM209.727 495.966L212.684 495.456V495.456L209.727 495.966ZM199.808 488.872L199.276 485.919H199.276L199.808 488.872ZM194.912 491.654L193.05 494.005L195.289 495.779L197.17 493.629L194.912 491.654ZM169.858 471.81L167.798 469.628L165.277 472.009L167.995 474.162L169.858 471.81ZM208.603 496.168L205.647 496.679V496.679L208.603 496.168ZM202.583 504.949L203.115 507.901H203.115L202.583 504.949ZM200.006 490.02L199.474 487.068L200.006 490.02ZM193.986 498.801L196.943 498.29V498.29L193.986 498.801ZM170.711 353.205V462.816H176.711V353.205H170.711ZM172.569 356.205H173.711V350.205H172.569V356.205ZM175.569 462.816V353.205H169.569V462.816H175.569ZM161.723 476.894C169.429 476.894 175.569 470.531 175.569 462.816H169.569C169.569 467.338 165.997 470.894 161.723 470.894V476.894ZM0.741943 476.894H161.723V470.894H0.741943V476.894ZM3.74194 475.06V473.894H-2.25806V475.06H3.74194ZM161.723 472.06H0.741943V478.06H161.723V472.06ZM167.125 470.205C165.616 471.374 163.749 472.06 161.723 472.06V478.06C165.136 478.06 168.286 476.896 170.8 474.948L167.125 470.205ZM196.072 490.221L170.825 470.225L167.1 474.928L192.347 494.925L196.072 490.221ZM195.818 498.493C195.55 496.94 195.911 495.433 196.708 494.234L191.711 490.912C190.094 493.346 189.368 496.4 189.906 499.514L195.818 498.493ZM202.25 503.145C199.287 503.678 196.366 501.665 195.818 498.493L189.906 499.514C191 505.855 196.962 510.194 203.313 509.05L202.25 503.145ZM206.771 496.476C207.321 499.664 205.23 502.608 202.25 503.145L203.313 509.05C209.647 507.909 213.776 501.782 212.684 495.456L206.771 496.476ZM200.339 491.824C203.302 491.291 206.224 493.305 206.771 496.476L212.684 495.456C211.589 489.114 205.628 484.775 199.276 485.919L200.339 491.824ZM197.17 493.629C197.98 492.704 199.073 492.053 200.339 491.824L199.276 485.919C196.607 486.4 194.316 487.779 192.654 489.679L197.17 493.629ZM167.995 474.162L193.05 494.005L196.775 489.302L171.72 469.458L167.995 474.162ZM170.711 462.816C170.711 465.523 169.585 467.942 167.798 469.628L171.917 473.991C174.87 471.204 176.711 467.221 176.711 462.816H170.711ZM205.647 496.679C206.088 499.232 204.411 501.572 202.052 501.996L203.115 507.901C208.828 506.873 212.542 501.35 211.559 495.658L205.647 496.679ZM200.538 492.973C202.88 492.551 205.209 494.141 205.647 496.679L211.559 495.658C210.574 489.951 205.205 486.036 199.474 487.068L200.538 492.973ZM196.943 498.29C196.502 495.737 198.178 493.398 200.538 492.973L199.474 487.068C193.761 488.097 190.047 493.619 191.03 499.311L196.943 498.29ZM202.052 501.996C199.71 502.418 197.381 500.828 196.943 498.29L191.03 499.311C192.015 505.018 197.384 508.934 203.115 507.901L202.052 501.996Z" fill="#5C9CE7" mask="url(#path-1-inside-1_96_630)"/>
</g>
<defs>
<clipPath id="clip0_96_630">
<rect width="209.117" height="506.232" fill="white" transform="translate(0.741943)"/>
</clipPath>
</defs>
</svg>
