<svg width="7" height="7" viewBox="0 0 7 7" fill="none" xmlns="http://www.w3.org/2000/svg">
<path d="M3.37969 0.797363H3.34084L3.30148 0.798413L3.26212 0.800514L3.22275 0.802614L3.18391 0.805765L3.14455 0.809441L3.10571 0.814166L3.06687 0.818894L3.02803 0.824669L2.98919 0.831496L2.95035 0.838324L2.91204 0.8462L2.87372 0.854602L2.83541 0.864055L2.79709 0.873508L2.75931 0.884009L2.72151 0.895564L2.68425 0.907117L2.64698 0.919719L2.60972 0.932848L2.57298 0.946502L2.53677 0.960679L2.50003 0.97591L2.46433 0.991139L2.42864 1.00742L2.39295 1.02475L2.35779 1.04208L2.32315 1.05993L2.28851 1.07884L2.25439 1.09827L2.22028 1.11822L2.18669 1.1387L2.15362 1.15971L2.12055 1.18124L2.08854 1.20329L2.05652 1.2264L2.02451 1.24951L1.99354 1.27314L1.96257 1.29782L1.93213 1.3225L1.90221 1.34823L1.87282 1.37396L1.84396 1.40075L1.81561 1.42753L1.78727 1.45536L1.75945 1.48319L1.73269 1.51155L1.70592 1.54043L1.67968 1.56984L1.65448 1.59977L1.62929 1.63023L1.60462 1.66069L1.58048 1.69167L1.55739 1.72318L1.53429 1.75521L1.51225 1.78777L1.4902 1.82033L1.46921 1.85341L1.44821 1.88702L1.42827 1.92063L1.40885 1.95477L1.38996 1.98943L1.37158 2.02408L1.35427 2.05927L1.33694 2.09498L1.32067 2.13069L1.30493 2.1664L1.28971 2.20263L1.27554 2.23939L1.26136 2.27615L1.24824 2.31291L1.23565 2.35019L1.22358 2.38748L1.21255 2.42529L1.20153 2.4631L1.19156 2.50143L1.18264 2.53924L1.17371 2.57758L1.16584 2.61644L1.15849 2.65477L1.15167 2.69363L1.1459 2.73249L1.14065 2.77135L1.13592 2.81021L1.13225 2.8496L1.1291 2.88898L1.12648 2.92784L1.12438 2.96723L1.12333 3.00661L1.1228 3.046V3.08486L1.12385 3.12425L1.12543 3.16363L1.12753 3.20302L1.13015 3.2424L1.13383 3.28126L1.13802 3.32012L1.14327 3.35951L1.14905 3.39837L1.15535 3.43723L1.16217 3.47556L1.16952 3.51442L1.17791 3.55276L1.18684 3.59109L1.19681 3.6289L1.20678 3.66724L1.2178 3.70452L1.22935 3.74233L1.24194 3.77962L1.25454 3.8169L1.26819 3.85366L1.28236 3.89042L1.29758 3.92666L1.3128 3.96289L1.32907 3.9986L1.34534 4.03431L1.36319 4.06949L1.38103 4.10468L1.3994 4.13934L1.41882 4.17347L1.43824 4.2076L1.45871 4.24121L1.47971 4.2743L1.50122 4.30738L1.52327 4.33994L1.54584 4.37197L1.56893 4.40348L1.59255 4.43499L1.61669 4.46597L1.64188 4.49643L1.66708 4.52636L1.6928 4.55629L1.71904 4.58518L1.74581 4.61406L1.77362 4.64242L1.80144 4.66973L1.82978 4.69703L1.85813 4.72381L1.88752 4.75007L1.91743 4.7758L1.94735 4.80101L1.97779 4.82569L2.00929 4.84984L2.04025 4.87348L2.07227 4.89658L2.10429 4.91917L2.13735 4.94122L2.16989 4.96223L2.20348 4.98323L2.23707 5.00318L2.27119 5.02314L2.30583 5.04205L2.34047 5.06043L2.37511 5.07828L2.4108 5.09509L2.44649 5.11189L2.48218 5.12765L2.5184 5.14287L2.55461 5.15758L2.59135 5.17176L2.62862 5.18541L2.66536 5.19801L2.70315 5.21009L2.74041 5.22164L2.7782 5.23267L2.81651 5.24265L2.8543 5.2521L2.89262 5.26103L2.93093 5.26891L2.96977 5.27626L3.00861 5.28309L3.04745 5.28939L3.08629 5.29464L3.12513 5.29989L3.16397 5.30357L3.20333 5.30724L3.2427 5.30987L3.28154 5.31197L3.3209 5.31354L3.36026 5.31407H3.39963L3.43899 5.31354L3.47836 5.31197L3.5172 5.30987L3.55656 5.30724L3.59592 5.30357L3.63477 5.29989L3.6736 5.29464L3.71245 5.28939L3.75128 5.28309L3.79012 5.27626L3.82896 5.26891L3.86728 5.26103L3.90559 5.2521L3.94338 5.24265L3.9817 5.23267L4.01948 5.22164L4.05675 5.21009L4.09401 5.19801L4.13128 5.18541L4.16854 5.17176L4.20528 5.15758L4.2415 5.14287L4.27771 5.12765L4.3134 5.11189L4.34909 5.09509L4.38478 5.07828L4.41943 5.06043L4.45406 5.04205L4.4887 5.02314L4.52282 5.00318L4.55642 4.98323L4.59 4.96223L4.62254 4.94122L4.65561 4.91917L4.68763 4.89658L4.71964 4.87348L4.75061 4.84984L4.78158 4.82569L4.81254 4.80101L4.84246 4.7758L4.87237 4.75007L4.90124 4.72381L4.93011 4.69703L4.95845 4.66973L4.98627 4.64242L5.01356 4.61406L5.04085 4.58518L5.0671 4.55629L5.09281 4.52636L5.11801 4.49643L5.1432 4.46597L5.16734 4.43499L5.19097 4.40348L5.21405 4.37197L5.23662 4.33994L5.25867 4.30738L5.28019 4.2743L5.30118 4.24121L5.32165 4.2076L5.34107 4.17347L5.36049 4.13934L5.37886 4.10468L5.39671 4.06949L5.41402 4.03431L5.43083 3.9986L5.44709 3.96289L5.46232 3.92666L5.47753 3.89042L5.49171 3.85366L5.50535 3.8169L5.51795 3.77962L5.53054 3.74233L5.54209 3.70452L5.55311 3.66724L5.56309 3.6289L5.57306 3.59109L5.58198 3.55276L5.59037 3.51442L5.59773 3.47556L5.60455 3.43723L5.61084 3.39837L5.61662 3.35951L5.62187 3.32012L5.62607 3.28126L5.62974 3.2424L5.63236 3.20302L5.63447 3.16363L5.63604 3.12425L5.63709 3.08486V3.046L5.63657 3.00661L5.63552 2.96723L5.63341 2.92784L5.63079 2.88898L5.62765 2.8496L5.62397 2.81021L5.61925 2.77135L5.614 2.73249L5.60823 2.69363L5.6014 2.65477L5.59405 2.61644L5.58618 2.57758L5.57726 2.53924L5.56833 2.50143L5.55836 2.4631L5.54734 2.42529L5.53632 2.38748L5.52425 2.35019L5.51165 2.31291L5.49853 2.27615L5.48436 2.23939L5.47019 2.20263L5.45496 2.1664L5.43922 2.13069L5.42295 2.09498L5.40563 2.05927L5.38779 2.02408L5.36994 1.98943L5.35104 1.95477L5.33162 1.92063L5.31168 1.88702L5.29068 1.85341L5.26969 1.82033L5.24764 1.78777L5.2256 1.75521L5.20251 1.72318L5.17942 1.69167L5.15527 1.66069L5.1306 1.63023L5.10541 1.59977L5.08021 1.56984L5.05398 1.54043L5.0272 1.51155L4.99991 1.48319L4.97263 1.45536L4.94428 1.42753L4.91594 1.40075L4.88707 1.37396L4.85768 1.34823L4.82776 1.3225L4.79732 1.29782L4.76635 1.27314L4.73538 1.24951L4.70337 1.2264L4.67136 1.20329L4.63934 1.18124L4.60627 1.15971L4.57321 1.1387L4.53961 1.11822L4.5055 1.09827L4.47139 1.07884L4.43674 1.05993L4.4021 1.04208L4.36694 1.02475L4.33125 1.00742L4.29556 0.991139L4.25934 0.97591L4.22313 0.960679L4.18691 0.946502L4.14965 0.932848L4.11291 0.919719L4.07565 0.907117L4.03785 0.895564L4.00059 0.884009L3.9628 0.873508L3.92448 0.864055L3.88617 0.854602L3.84786 0.8462L3.80954 0.838324L3.7707 0.831496L3.73187 0.824669L3.69302 0.818894L3.65418 0.814166L3.61534 0.809441L3.57598 0.805765L3.53714 0.802614L3.49778 0.800514L3.45841 0.798413L3.41905 0.797363H3.37969Z" stroke="black" stroke-width="1.5" stroke-miterlimit="10" stroke-linecap="round" stroke-linejoin="round"/>
</svg>
