<svg width="2" height="43" viewBox="0 0 2 43" fill="none" xmlns="http://www.w3.org/2000/svg">
<path d="M0.494385 0.435791H0.51119L0.528008 0.436272L0.544813 0.436753L0.561632 0.437234L0.578436 0.438182L0.595699 0.439626L0.612517 0.440573L0.62978 0.442002L0.647042 0.443927L0.664304 0.445837L0.681566 0.448213L0.698829 0.450604L0.716105 0.452995L0.733367 0.455867L0.75063 0.458725L0.768349 0.462078L0.785612 0.465898L0.803332 0.469718L0.820594 0.473538L0.838314 0.477839L0.856034 0.48214L0.873296 0.486923L0.891016 0.49169L0.908292 0.496953L0.925998 0.502202L0.943718 0.507932L0.960994 0.513677L0.978714 0.519888L0.995976 0.526099L1.0137 0.532776L1.03096 0.539949L1.04822 0.547108L1.06548 0.554281L1.08275 0.561921L1.10002 0.569561L1.11728 0.577697L1.13455 0.586284L1.15135 0.594886L1.16863 0.603488L1.18543 0.612572L1.20224 0.62164L1.21906 0.631205L1.23586 0.641236L1.25222 0.651267L1.26903 0.661298L1.28539 0.67181L1.30175 0.682803L1.31764 0.693781L1.334 0.704775L1.3499 0.716234L1.36581 0.728175L1.38125 0.73965L1.3967 0.752072L1.41214 0.764494L1.42759 0.776916L1.44259 0.789819L1.45758 0.802707L1.47257 0.815611L1.48711 0.828995L1.50166 0.842846L1.51619 0.856697L1.53028 0.870547L1.54436 0.884879L1.55845 0.899211L1.57208 0.913543L1.58571 0.928357L1.59888 0.943651L1.61205 0.958464L1.62478 0.973744L1.6375 0.989519L1.65022 1.0048L1.66248 1.02056L1.67475 1.03682L1.68657 1.05258L1.69838 1.06882L1.70973 1.08506L1.72109 1.10178L1.732 1.11851L1.7429 1.13523L1.75381 1.15195L1.76425 1.16914L1.77425 1.18635L1.78425 1.20355L1.79424 1.22074L1.80378 1.23843L1.81288 1.25562L1.82196 1.2733L1.83104 1.29097L1.83968 1.30912L1.84786 1.32681L1.85604 1.34496L1.86376 1.36263L1.87149 1.3808L1.87921 1.39895L1.88648 1.4171L1.8933 1.43525L1.90011 1.45389L1.90647 1.47204L1.91283 1.49019L1.91874 1.50882L1.92465 1.52699L1.93055 1.54562L1.93555 1.56424L1.94099 1.58241L1.946 1.60104L1.95053 1.61919L1.95508 1.63783L1.95917 1.65646L1.96326 1.67461L1.96689 1.69324L1.97053 1.7114L1.9737 1.73003L1.97689 1.74818L1.98007 1.76681L1.98234 1.78497L1.98507 1.80312L1.98735 1.82128L1.98916 1.83944L1.99142 1.85759L1.9928 1.87574L1.99415 1.89343L1.99551 1.91158L1.99643 1.92925L1.99733 1.9474L1.99824 1.96509L1.9987 1.98276V2.00044L1.99915 2.01763V41.1069L1.9987 41.1245V41.1422L1.99824 41.1599L1.99733 41.1776L1.99643 41.1952L1.99551 41.2134L1.99415 41.2311L1.9928 41.2492L1.99142 41.2674L1.98916 41.2855L1.98735 41.3037L1.98507 41.3219L1.98234 41.34L1.98007 41.3582L1.97689 41.3768L1.9737 41.3949L1.97053 41.4131L1.96689 41.4317L1.96326 41.4499L1.95917 41.4685L1.95508 41.4872L1.95053 41.5053L1.946 41.5239L1.94099 41.5426L1.93555 41.5607L1.93055 41.5794L1.92465 41.5975L1.91874 41.6161L1.91283 41.6343L1.90647 41.6529L1.90011 41.6711L1.8933 41.6892L1.88648 41.7074L1.87921 41.7256L1.87149 41.7437L1.86376 41.7619L1.85604 41.78L1.84786 41.7982L1.83968 41.8158L1.83104 41.8335L1.82196 41.8512L1.81288 41.8689L1.80378 41.8866L1.79424 41.9042L1.78425 41.9214L1.77425 41.9386L1.76425 41.9558L1.75381 41.9725L1.7429 41.9898L1.732 42.0065L1.72109 42.0232L1.70973 42.0394L1.69838 42.0562L1.68657 42.0719L1.67475 42.0882L1.66248 42.1039L1.65022 42.1202L1.6375 42.1355L1.62478 42.1512L1.61205 42.1665L1.59888 42.1813L1.58571 42.1961L1.57208 42.2109L1.55845 42.2258L1.54436 42.2401L1.53028 42.2544L1.51619 42.2683L1.50166 42.2821L1.48711 42.2955L1.47257 42.3089L1.45758 42.3223L1.44259 42.3352L1.42759 42.3481L1.41214 42.3605L1.3967 42.3729L1.38125 42.3849L1.36581 42.3968L1.3499 42.4087L1.334 42.4197L1.31764 42.4312L1.30175 42.4422L1.28539 42.4527L1.26903 42.4632L1.25222 42.4737L1.23586 42.4837L1.21906 42.4933L1.20224 42.5028L1.18543 42.5124L1.16863 42.5215L1.15135 42.5301L1.13455 42.5387L1.11728 42.5473L1.10002 42.5549L1.08275 42.563L1.06548 42.5707L1.04822 42.5779L1.03096 42.585L1.0137 42.5917L0.995976 42.5984L0.978714 42.6051L0.960994 42.6108L0.943718 42.617L0.925998 42.6228L0.908292 42.628L0.891016 42.6333L0.873296 42.6381L0.856034 42.6428L0.838314 42.6471L0.820594 42.6514L0.803332 42.6553L0.785612 42.6591L0.768349 42.6624L0.75063 42.6658L0.733367 42.6691L0.716105 42.672L0.698829 42.6744L0.681566 42.6768L0.664304 42.6791L0.647042 42.6811L0.62978 42.6825L0.612517 42.6839L0.595699 42.6854L0.578436 42.6868L0.561632 42.6873L0.544813 42.6882L0.528008 42.6887H0.51119L0.494385 42.6892" fill="black"/>
</svg>
