<svg width="2" height="22" viewBox="0 0 2 22" fill="none" xmlns="http://www.w3.org/2000/svg">
<path d="M0.494385 0.542969H0.520285L0.546629 0.543924L0.57253 0.544879L0.59843 0.546789L0.62433 0.548699L0.650217 0.55109L0.67566 0.554436L0.70156 0.557775L0.727461 0.562076L0.752904 0.566377L0.778346 0.571152L0.803789 0.576889L0.829232 0.582619L0.854675 0.58883L0.87966 0.595522L0.904645 0.602688L0.929645 0.610328L0.95463 0.618449L0.979158 0.627051L1.0037 0.636127L1.02777 0.645684L1.05231 0.655715L1.0764 0.665746L1.10002 0.676739L1.12365 0.687725L1.14726 0.699666L1.17044 0.711614L1.19361 0.724036L1.21632 0.736932L1.23905 0.750309L1.26176 0.764167L1.28403 0.778018L1.30584 0.792831L1.32763 0.807644L1.34899 0.822931L1.37035 0.838692L1.39125 0.85446L1.41214 0.871183L1.43259 0.887906L1.45259 0.905103L1.47257 0.922781L1.4921 0.940459L1.5112 0.959092L1.53028 0.977718L1.5489 0.996351L1.56753 1.01594L1.58571 1.03553L1.60343 1.0556L1.62069 1.07566L1.6375 1.0962L1.65432 1.11723L1.67066 1.13825L1.68657 1.15975L1.70247 1.18172L1.71792 1.2037L1.73246 1.22615L1.74699 1.2486L1.76154 1.27154L1.77517 1.29495L1.78879 1.31788L1.80151 1.34177L1.81424 1.36566L1.82651 1.38954L1.83832 1.41391L1.85013 1.43827L1.86103 1.46312L1.87149 1.48796L1.88193 1.51328L1.89193 1.5386L1.90102 1.56392L1.9101 1.58925L1.91874 1.61504L1.92691 1.64132L1.93463 1.66712L1.94191 1.69339L1.94872 1.71967L1.95508 1.74643L1.96145 1.7727L1.96689 1.79945L1.97189 1.82621L1.97643 1.85296L1.98098 1.8802L1.98461 1.90695L1.98779 1.93419L1.99098 1.96141L1.99324 1.98865L1.99551 2.01588L1.99689 2.04311L1.99824 2.07034L1.9987 2.09757L1.99915 2.1248V19.8012L1.9987 19.8284L1.99824 19.8556L1.99689 19.8829L1.99551 19.9101L1.99324 19.9373L1.99098 19.9646L1.98779 19.9918L1.98461 20.019L1.98098 20.0458L1.97643 20.073L1.97189 20.0998L1.96689 20.1265L1.96145 20.1533L1.95508 20.1795L1.94872 20.2063L1.94191 20.2326L1.93463 20.2589L1.92691 20.2847L1.91874 20.3109L1.9101 20.3367L1.90102 20.362L1.89193 20.3874L1.88193 20.4127L1.87149 20.438L1.86103 20.4629L1.85013 20.4877L1.83832 20.5121L1.82651 20.5364L1.81424 20.5603L1.80151 20.5842L1.78879 20.6081L1.77517 20.631L1.76154 20.6544L1.74699 20.6774L1.73246 20.6998L1.71792 20.7223L1.70247 20.7443L1.68657 20.7662L1.67066 20.7877L1.65432 20.8087L1.6375 20.8298L1.62069 20.8503L1.60343 20.8704L1.58571 20.8904L1.56753 20.91L1.5489 20.9296L1.53028 20.9483L1.5112 20.9669L1.4921 20.9855L1.47257 21.0032L1.45259 21.0209L1.43259 21.0381L1.41214 21.0548L1.39125 21.0715L1.37035 21.0873L1.34899 21.103L1.32763 21.1183L1.30584 21.1331L1.28403 21.148L1.26176 21.1618L1.23905 21.1757L1.21632 21.189L1.19361 21.2019L1.17044 21.2144L1.14726 21.2263L1.12365 21.2382L1.10002 21.2492L1.0764 21.2602L1.05231 21.2703L1.02777 21.2803L1.0037 21.2898L0.979158 21.2989L0.95463 21.3075L0.929645 21.3156L0.904645 21.3233L0.87966 21.3305L0.854675 21.3371L0.829232 21.3434L0.803789 21.3491L0.778346 21.3548L0.752904 21.3596L0.727461 21.3639L0.70156 21.3682L0.67566 21.3715L0.650217 21.3749L0.62433 21.3773L0.59843 21.3792L0.57253 21.3811L0.546629 21.382L0.520285 21.383H0.494385" fill="black"/>
</svg>
