<svg width="18" height="6" viewBox="0 0 18 6" fill="none" xmlns="http://www.w3.org/2000/svg">
<path d="M2.22931 4.56118H2.21181L2.19432 4.56048L2.17683 4.55907L2.15934 4.55766L2.14231 4.55555L2.12483 4.55344L2.10733 4.54992L2.09031 4.5471L2.07282 4.54288L2.05579 4.53865L2.0383 4.53443L2.02128 4.5288L2.00426 4.52317L1.98725 4.51753L1.97022 4.5112L1.95367 4.50416L1.93665 4.49712L1.9201 4.48937L1.90356 4.48092L1.88701 4.47248L1.87094 4.46332L1.85439 4.45417L1.83832 4.44431L1.82224 4.43375L1.80616 4.42319L1.79057 4.41193L1.77496 4.40066L1.75936 4.3887L1.74376 4.37673L1.72863 4.36406L1.7135 4.35068L1.69885 4.3373L1.68371 4.32322L1.66953 4.30914L1.65488 4.29436L1.64069 4.27957L1.62651 4.26479L1.6128 4.24859L1.59861 4.2324L1.58538 4.21621L1.57214 4.19931L1.5589 4.18241L1.54566 4.16482L1.53289 4.14721L1.52061 4.12961L1.50831 4.11131L1.49602 4.0923L1.4842 4.07329L1.47238 4.05428L1.46103 4.03457L1.44968 4.01415L1.43881 3.99444L1.42793 3.97402L1.41754 3.9529L1.40714 3.93178L1.39721 3.91066L1.38728 3.88954L1.37782 3.86771L1.36837 3.84589L1.35939 3.82336L1.35087 3.80083L1.34236 3.7783L1.33385 3.75507L1.32582 3.73184L1.31825 3.7086L1.31069 3.68537L1.30359 3.66143L1.29698 3.6375L1.29035 3.61356L1.28374 3.58962L1.27759 3.56498L1.27192 3.54034L1.26672 3.5157L1.26152 3.49106L1.25632 3.46642L1.25206 3.44107L1.24734 3.41573L1.24355 3.39038L1.23977 3.36504L1.23646 3.33969L1.23315 3.31435L1.23031 3.2883L1.22795 3.26295L1.22559 3.2369L1.2237 3.21086L1.2218 3.18551L1.22038 3.15946L1.21944 3.13341L1.21849 3.10736V3.08131L1.21802 3.05526L1.21849 3.02922V3.00387L1.21944 2.97782L1.22038 2.95177L1.2218 2.92572L1.2237 2.89967L1.22559 2.87433L1.22795 2.84828L1.23031 2.82223L1.23315 2.79689L1.23646 2.77154L1.23977 2.7462L1.24355 2.72015L1.24734 2.6955L1.25206 2.67016L1.25632 2.64482L1.26152 2.62017L1.26672 2.59483L1.27192 2.57019L1.27759 2.54625L1.28374 2.52161L1.29035 2.49767L1.29698 2.47303L1.30359 2.44909L1.31069 2.42586L1.31825 2.40192L1.32582 2.37869L1.33385 2.35546L1.34236 2.33293L1.35087 2.3104L1.35939 2.28787L1.36837 2.26534L1.37782 2.24352L1.38728 2.22169L1.39721 2.19987L1.40714 2.17875L1.41754 2.15763L1.42793 2.13721L1.43881 2.11679L1.44968 2.09638L1.46103 2.07666L1.47238 2.05695L1.4842 2.03794L1.49602 2.01893L1.50831 1.99992L1.52061 1.98162L1.53289 1.96332L1.54566 1.94571L1.5589 1.92882L1.57214 1.91122L1.58538 1.89502L1.59861 1.87813L1.6128 1.86193L1.62651 1.84645L1.64069 1.83096L1.65488 1.81617L1.66953 1.80209L1.68371 1.78731L1.69885 1.77393L1.7135 1.76055L1.72863 1.74718L1.74376 1.73451L1.75936 1.72254L1.77496 1.71057L1.79057 1.6986L1.80616 1.68804L1.82224 1.67748L1.83832 1.66692L1.85439 1.65706L1.87094 1.64791L1.88701 1.63876L1.90356 1.63031L1.9201 1.62186L1.93665 1.61412L1.95367 1.60708L1.97022 1.60003L1.98725 1.5937L2.00426 1.58736L2.02128 1.58173L2.0383 1.5768L2.05579 1.57187L2.07282 1.56765L2.09031 1.56413L2.10733 1.56061L2.12483 1.55779L2.14231 1.55568L2.15934 1.55357L2.17683 1.55216L2.19432 1.55075L2.21181 1.55005H2.22931H16.0067H16.0242L16.0417 1.55075L16.0592 1.55216L16.0767 1.55357L16.0942 1.55568L16.1112 1.55779L16.1287 1.56061L16.1462 1.56413L16.1632 1.56765L16.1807 1.57187L16.1977 1.5768L16.2148 1.58173L16.2318 1.58736L16.2488 1.5937L16.2658 1.60003L16.2828 1.60708L16.2994 1.61412L16.3159 1.62186L16.3325 1.63031L16.349 1.63876L16.3656 1.64791L16.3817 1.65706L16.3977 1.66692L16.4138 1.67748L16.4299 1.68804L16.4455 1.6986L16.4611 1.71057L16.4767 1.72254L16.4923 1.73451L16.5074 1.74718L16.5225 1.76055L16.5377 1.77393L16.5523 1.78731L16.567 1.80209L16.5812 1.81617L16.5954 1.83096L16.6095 1.84645L16.6237 1.86193L16.6374 1.87813L16.6507 1.89502L16.6644 1.91122L16.6776 1.92882L16.6904 1.94571L16.7031 1.96332L16.7159 1.98162L16.7282 1.99992L16.74 2.01893L16.7518 2.03794L16.7637 2.05695L16.775 2.07666L16.7864 2.09638L16.7972 2.11679L16.8081 2.13721L16.8185 2.15763L16.8289 2.17875L16.8388 2.19987L16.8488 2.22169L16.8582 2.24352L16.8677 2.26534L16.8767 2.28787L16.8856 2.3104L16.8942 2.33293L16.9022 2.35546L16.9102 2.37869L16.9178 2.40192L16.9254 2.42586L16.9324 2.44909L16.9395 2.47303L16.9462 2.49767L16.9523 2.52161L16.9585 2.54625L16.9641 2.57019L16.9698 2.59483L16.975 2.62017L16.9797 2.64482L16.9845 2.67016L16.9887 2.6955L16.9925 2.72015L16.9963 2.7462L17.0001 2.77154L17.0029 2.79689L17.0057 2.82223L17.0086 2.84828L17.0105 2.87433L17.0128 2.89967L17.0142 2.92572L17.0157 2.95177L17.0166 2.97782L17.0176 3.00387L17.018 3.02922V3.05526V3.08131L17.0176 3.10736L17.0166 3.13341L17.0157 3.15946L17.0142 3.18551L17.0128 3.21086L17.0105 3.2369L17.0086 3.26295L17.0057 3.2883L17.0029 3.31435L17.0001 3.33969L16.9963 3.36504L16.9925 3.39038L16.9887 3.41573L16.9845 3.44107L16.9797 3.46642L16.975 3.49106L16.9698 3.5157L16.9641 3.54034L16.9585 3.56498L16.9523 3.58962L16.9462 3.61356L16.9395 3.6375L16.9324 3.66143L16.9254 3.68537L16.9178 3.7086L16.9102 3.73184L16.9022 3.75507L16.8942 3.7783L16.8856 3.80083L16.8767 3.82336L16.8677 3.84589L16.8582 3.86771L16.8488 3.88954L16.8388 3.91066L16.8289 3.93178L16.8185 3.9529L16.8081 3.97402L16.7972 3.99444L16.7864 4.01415L16.775 4.03457L16.7637 4.05428L16.7518 4.07329L16.74 4.0923L16.7282 4.11131L16.7159 4.12961L16.7031 4.14721L16.6904 4.16482L16.6776 4.18241L16.6644 4.19931L16.6507 4.21621L16.6374 4.2324L16.6237 4.24859L16.6095 4.26479L16.5954 4.27957L16.5812 4.29436L16.567 4.30914L16.5523 4.32322L16.5377 4.3373L16.5225 4.35068L16.5074 4.36406L16.4923 4.37673L16.4767 4.3887L16.4611 4.40066L16.4455 4.41193L16.4299 4.42319L16.4138 4.43375L16.3977 4.44431L16.3817 4.45417L16.3656 4.46332L16.349 4.47248L16.3325 4.48092L16.3159 4.48937L16.2994 4.49712L16.2828 4.50416L16.2658 4.5112L16.2488 4.51753L16.2318 4.52317L16.2148 4.5288L16.1977 4.53443L16.1807 4.53865L16.1632 4.54288L16.1462 4.5471L16.1287 4.54992L16.1112 4.55344L16.0942 4.55555L16.0767 4.55766L16.0592 4.55907L16.0417 4.56048L16.0242 4.56118H16.0067H2.22931Z" stroke="black" stroke-width="1.5" stroke-miterlimit="10" stroke-linecap="round" stroke-linejoin="round"/>
</svg>
