<svg width="21" height="2" viewBox="0 0 21 2" fill="none" xmlns="http://www.w3.org/2000/svg">
<path d="M20.2753 1.99994L18.8484 1.00631L18.8037 0.975524L18.759 0.945945L18.7133 0.916932L18.6671 0.889053L18.6204 0.861775L18.5737 0.835667L18.5261 0.810126L18.4785 0.785754L18.4303 0.762551L18.3817 0.739914L18.3331 0.717844L18.284 0.697546L18.2344 0.677779L18.1843 0.659216L18.1343 0.641221L18.0842 0.624394L18.0336 0.608736L17.9831 0.593645L17.932 0.58029L17.881 0.567537L17.8294 0.555918L17.7784 0.544901L17.7269 0.535017L17.6753 0.526303L17.6238 0.518757L17.5723 0.512381L17.5202 0.506571L17.4687 0.502497L17.4172 0.498459L17.3656 0.496121L17.3141 0.494385H17.2626H10.4943H3.72559H3.67406L3.62253 0.496121L3.571 0.498459L3.51947 0.502497L3.46793 0.506571L3.4164 0.512381L3.36487 0.518757L3.31285 0.526303L3.26132 0.535017L3.21027 0.544901L3.15874 0.555918L3.10769 0.567537L3.05616 0.58029L3.0056 0.593645L2.95455 0.608736L2.90399 0.624394L2.85392 0.641221L2.80385 0.659216L2.75426 0.677779L2.70467 0.697546L2.65508 0.717844L2.60646 0.739914L2.55785 0.762551L2.50972 0.785754L2.46208 0.810126L2.41444 0.835667L2.36776 0.861775L2.3211 0.889053L2.27491 0.916932L2.2297 0.945945L2.18448 0.975524L2.13976 1.00631L0.713379 1.99994" fill="black"/>
</svg>
