<svg width="250" height="185" viewBox="0 0 250 185" fill="none" xmlns="http://www.w3.org/2000/svg">
<path fill-rule="evenodd" clip-rule="evenodd" d="M14 10C15.4557 10 16.7662 9.37789 17.6799 8.38503L43.7651 32.5015C41.0575 34.3746 39.5288 37.7557 40.1301 41.2576L40.1315 41.2657C40.2873 42.1684 40.5735 43.0141 40.9668 43.7863L8.68765 69.6096L8.80301 69.7538C7.88594 68.6804 6.52243 68 5 68C2.23858 68 0 70.2386 0 73C0 75.7614 2.23858 78 5 78C7.76142 78 10 75.7614 10 73C10 71.8777 9.63021 70.8417 9.00581 70.0073L9.31235 70.3904L41.4769 44.6588C43.3136 47.42 46.6238 48.977 50.0511 48.3598L50.0594 48.3583C51.3718 48.1206 52.5611 47.5893 53.5739 46.8422C53.9955 46.5312 54.3864 46.1829 54.743 45.8028C54.8122 45.729 54.88 45.6541 54.9466 45.578L80.0011 65.4219C79.5536 65.8443 79.1377 66.3011 78.7574 66.7882C78.5203 67.0921 78.297 67.4077 78.0885 67.734C76.8613 69.6553 76.1481 71.9502 76.1481 74.4152V184.027H77.2898V74.4152C77.2898 71.8007 78.1766 69.3977 79.6598 67.5029C80.0064 67.0601 80.3856 66.645 80.7937 66.2615C81.0529 66.018 81.3237 65.7871 81.6052 65.57C82.2002 65.1109 82.843 64.7131 83.5246 64.3856C84.924 63.7133 86.487 63.3375 88.136 63.3375H249.117V62.1714H88.136C86.1084 62.1714 84.1983 62.6855 82.524 63.5931C81.9524 63.9029 81.4083 64.2586 80.8964 64.6554L55.649 44.6588C55.9948 44.1387 56.286 43.5806 56.5162 42.9942C57.0892 41.5345 57.2838 39.8991 56.9984 38.2365L56.997 38.2284C56.2655 33.9915 52.6619 31.0086 48.5918 31C48.0925 30.999 47.5862 31.0427 47.0773 31.1344L47.069 31.1358C46.5734 31.2256 46.0954 31.3572 45.6377 31.5266C45.2988 31.652 44.9711 31.798 44.6558 31.9631L18.3394 7.63286L18.0019 7.9979C18.6287 7.1626 19 6.12466 19 5C19 2.23858 16.7614 0 14 0C11.2386 0 9 2.23858 9 5C9 7.76142 11.2386 10 14 10ZM14 9C16.2091 9 18 7.20914 18 5C18 2.79086 16.2091 1 14 1C11.7909 1 10 2.79086 10 5C10 7.20914 11.7909 9 14 9ZM47.5934 32.2326C47.4904 32.2465 47.3872 32.2627 47.2838 32.2812L47.2756 32.2827C43.2393 33.0096 40.5441 36.9408 41.2559 41.0632L41.2573 41.0714C41.9721 45.1865 45.814 47.9341 49.8446 47.2129L49.8529 47.2114C50.8747 47.0274 51.8106 46.638 52.627 46.0922C53.1664 45.7315 53.6537 45.3025 54.0791 44.8193C54.3006 44.5678 54.5054 44.3015 54.692 44.0226C55.0586 43.4745 55.3553 42.8773 55.5717 42.2462C55.9782 41.0608 56.1013 39.7558 55.8726 38.4309L55.8712 38.4228C55.1746 34.4131 51.5094 31.7018 47.5934 32.2326ZM9 73C9 75.2091 7.20914 77 5 77C2.79086 77 1 75.2091 1 73C1 70.7909 2.79086 69 5 69C7.20914 69 9 70.7909 9 73Z" fill="#5C9CE7"/>
</svg>
